<svg width="773" height="543" fill="none" xmlns="http://www.w3.org/2000/svg"><path fill-rule="evenodd" clip-rule="evenodd" d="M492.497 152.44c-51.221-45.084-111.222-56.715-127.084-59.09 10.68-27.058 27.189-67.291 31.3-73.25 1.324-.17 4.025-.43 8.017-.43 11.652 0 36.589 2.277 72.666 17.521 52.095 22.015 66.041 46.783 68.781 52.84l-53.68 62.409z" fill="#fff"/><ellipse cx="40.131" cy="86.941" rx="40.645" ry="40.131" transform="rotate(-90 40.13 86.94)" fill="#74ECF3"/><path fill-rule="evenodd" clip-rule="evenodd" d="M404.73 16.7c-6.339 0-9.596.628-9.596.628-3.704 1.16-34.047 78.446-34.047 78.446s72.029 6.901 131.714 61.038l56.972-66.239s-9.507-30.07-71.081-56.09C442.61 19.236 417.461 16.7 404.73 16.7zm0 5.938c11.4 0 35.83 2.243 71.369 17.26 47.132 19.917 62.362 42.181 66.374 49.714l-50.312 58.495c-30.28-25.885-62.914-40.186-85.483-47.712-16.007-5.337-29.11-8.071-36.964-9.398 11.804-29.787 24.649-60.45 28.96-68.117 1.4-.123 3.427-.242 6.056-.242z" fill="#A0C6F4"/><path fill-rule="evenodd" clip-rule="evenodd" d="M371.581 102.515c0 .001.269.026.793.084 7.875.854 72.579 8.999 113.218 44.065a.829.829 0 001.118-.046.711.711 0 00-.048-1.048c-43.932-37.837-114.857-44.509-114.923-44.531-.433-.042-.822.255-.865.664-.044.408.272.772.707.813" fill="#2A1E17"/><path fill-rule="evenodd" clip-rule="evenodd" d="M432.82 98.533l26.423-48.245 27.156 50.313-53.579-2.068z" fill="#A0C6F4"/><path fill-rule="evenodd" clip-rule="evenodd" d="M437.958 97.845l.702.338 25.714-46.952 25.849 47.887-52.233-2.016-.032.743.702.338-.702-.338-.033.74 53.58 2.068a.805.805 0 00.697-.34.703.703 0 00.04-.736l-27.158-50.313a.793.793 0 00-.702-.407.797.797 0 00-.705.403l-26.422 48.245a.7.7 0 00.02.712c.135.22.381.358.65.368l.033-.74zM413.084 14.51c.001 0 .298.025.887.087 8.824.919 81.333 10.068 127.355 61.459a.825.825 0 001.113.089.712.712 0 00.096-1.045c-24.81-27.685-57.134-43.19-83.243-51.784-26.111-8.596-46.022-10.28-46.066-10.285-.435-.037-.819.264-.858.672-.04.409.281.77.716.806zm40.644 213.056c-4.36-3.01-7.221-5.031-7.221-5.031 1.209-1.512 20.319-20.631 31.381-36.037 0 0-22.375 42.299-24.16 41.068zM182.272 88.596c.576.895 1.094 1.529 1.739 1.964.645.438 1.398.596 2.16.59 1.443-.01 3.128-.433 6.062-.64.275-.022.557-.03.844-.03 2.846-.005 6.264.987 9.288 2.802 3.03 1.814 5.661 4.438 7.047 7.647 1.452 3.34 1.965 5.319 1.956 6.412-.003.605-.131.908-.299 1.135-.169.227-.439.417-.842.633-.076.046-.421.169-.875.285-1.623.423-4.764.965-7.547 1.64-1.397.341-2.709.713-3.748 1.149-.52.22-.974.453-1.352.735-.369.282-.701.631-.814 1.131-.087.402.192.793.62.874.427.081.844-.181.93-.582l.058-.087c.096-.119.367-.321.767-.517 1.411-.709 4.244-1.376 6.839-1.912 1.302-.27 2.554-.516 3.579-.742.512-.114.969-.223 1.353-.331.389-.11.694-.208.974-.353.464-.251.966-.557 1.348-1.066.386-.506.595-1.177.59-1.992-.008-1.485-.599-3.553-2.073-6.97-1.539-3.556-4.406-6.39-7.661-8.34-3.258-1.95-6.911-3.033-10.138-3.036-.325 0-.648.01-.964.034-3.029.221-4.859.646-5.942.637-.579-.006-.889-.086-1.244-.316-.356-.235-.777-.698-1.298-1.517-.225-.352-.71-.466-1.085-.256a.717.717 0 00-.272 1.019z" fill="#2A1E17"/><path fill-rule="evenodd" clip-rule="evenodd" d="M342.256 449.635l-5.509-8.745-19.544 30.591 5.129 3.705 19.924-25.551zm-129.778-75.86s-10.127-15.463-5.783-23.038l32.308 3.245-26.525 19.793z" fill="#F9865F"/><path fill-rule="evenodd" clip-rule="evenodd" d="M212.477 373.775l1.935 4.178-5.967 21.856c-.753 2.754.221 5.668 2.512 7.525l29.547-41.018c2.808-3.896 2.169-9.133-1.501-12.334l-6.602-5.76-19.924 25.553z" fill="#000"/><path fill-rule="evenodd" clip-rule="evenodd" d="M196.665 114.195c9.253-.207 20.978-.757 18.634-7.363-2.344-6.606-11.139-23.123-31.072-18.168 0 0-7.035 5.506 1.758 15.415 8.796 9.909 10.68 10.116 10.68 10.116z" fill="#2A1E33"/><path fill-rule="evenodd" clip-rule="evenodd" d="M243.498 354.347s-15.794-43.79-2.43-63.017c11.03-15.868 47.067 9.942 52.004 13.42l25.785-43.729s-5.952-7.837-20.567-15.509c-14.613-7.673-74.984-30.652-103.356 11.384-10.485 15.535-10.645 82.199 9.465 107.749l39.099-10.298z" fill="#7595EC"/><path fill-rule="evenodd" clip-rule="evenodd" d="M244.246 354.109c0-.001-.118-.329-.33-.954-1.483-4.368-7.432-23.026-7.427-39.96-.005-8.186 1.399-15.945 5.241-21.46 1.204-1.728 2.692-2.904 4.423-3.668 1.731-.763 3.721-1.109 5.903-1.109 7.245-.015 16.499 3.886 24.337 8.165 7.85 4.274 14.31 8.884 16.205 10.22.35.247.844.18 1.107-.148a.713.713 0 00-.158-1.039c-1.899-1.338-8.417-5.993-16.36-10.317-7.957-4.32-17.314-8.351-25.131-8.366-2.357 0-4.585.374-6.573 1.25-1.989.873-3.727 2.255-5.077 4.201-4.105 5.918-5.493 13.934-5.498 22.271.008 19.704 7.833 41.351 7.841 41.391.141.387.59.595 1.002.465.415-.133.636-.554.497-.942" fill="#2A1E17"/><path fill-rule="evenodd" clip-rule="evenodd" d="M318.858 261.021c-11.727 11.592-46.494 68.063-54.313 95.051-10.457 36.102-6.526 66.044 50.954 124.67l27.783-38.002s-19.534-27.855-15.887-54.114c5.275-37.989 34.064-74.821 48.63-98.184l-57.167-29.421z" fill="#7595EC"/><path fill-rule="evenodd" clip-rule="evenodd" d="M323.272 265.929l46.218 34.062 13.811-19.719-60.029-14.343z" fill="#2A1E17"/><path fill-rule="evenodd" clip-rule="evenodd" d="M588.727 230.115c7.207 1.45 12.699 4.029 16.474 7.736 3.774 3.705 2.058 5.638.686 6.766-1.374 1.128-6.692-.16-11.325-4.029-4.633-3.865-5.835-10.473-5.835-10.473z" fill="#FF8A66"/><path fill-rule="evenodd" clip-rule="evenodd" d="M446.507 222.535c1.209-1.512 20.319-20.631 31.381-36.037 0 0 33.443 35.187 37.07 36.322 1.348.422 9.547.321 19.727.223 17.208-.168 40.08-.33 45.142 2.047 8.059 3.784 12.893 5.675 14.909 10.974 2.014 5.296 2.807 8.755-2.016 9.08-5.641.379-9.267-6.432-9.267-6.432s-4.608 2.613-16.518 6.811c0 0-42.856 15.621-71.499 8.065-7.822-2.062-48.929-31.053-48.929-31.053zM186.735 81.997c-3.677 1.316-5.912 2.886-3.785 6.217 2.13 3.332 3.075 1.999 9.223 1.555 6.15-.444 14.898 3.775 17.971 10.881 3.075 7.105 2.13 8.215.474 9.105-1.656.887-13.478 2.219-13.952 4.44-.473 2.22 4.791 8.775 15.669 8.331l2.602-.444s22.874 20.98 26.186 24.089c3.31 3.11 27.639 18.587 41.042 21.733 10.187 2.392 30.825-.692 43.228-2.965 6.022-1.103 10.102-2.016 10.102-2.016s-9.305-15.743-11.199-39.946c0 0-22.265 3.358-37.06 6.407 0 0-34.527-18.077-51.316-26.069 0 0-14.661-16.876-21.519-19.098-6.857-2.22-22.701-3.997-27.666-2.22z" fill="#F9865F"/><path fill-rule="evenodd" clip-rule="evenodd" d="M325.393 164.94c6.022-1.103 10.102-2.016 10.102-2.016s-11.257-13.327-13.148-37.53c0 0-5.09 5.15-3.508 18.859 1.99 17.229 6.554 20.687 6.554 20.687z" fill="#2A1E17"/><path fill-rule="evenodd" clip-rule="evenodd" d="M321.802 122.685s.311 29.577 8.75 41.916l3.025-1.137s-39.766 43.686-52.628 72.232c-2.104 4.671 82.567 55.459 95.076 54.747 0 0 41.252-59.125 55.361-76.651l15.164 11.034s29.742-28.284 31.339-38.328c0 0-28.726-32.826-52.23-42.438-23.501-9.61-44.503-26.075-69.749-25.628-21.854.386-34.108 4.253-34.108 4.253z" fill="#FFEAA0"/><path fill-rule="evenodd" clip-rule="evenodd" d="M446.55 224.826l-15.164-11.035 2.417-6.18 12.747 17.215z" fill="#2A1E17"/><path fill-rule="evenodd" clip-rule="evenodd" d="M469.616 107.871c-2.656 7.754-10.321 30.186-18.874 32.955-8.554 2.768-17.457-.708-17.457-.708l-9.11 4.378c-1.017 2.863-8.207 5.329-17.493 5.664-6.873.248-11.059-8.041-9.023-14.041.933-2.756 4.422-16.34 4.422-16.34s7.373-25.479 14.156-30.74c6.782-5.261 13.158-10.472 31.262-3.6 27.72 10.524 22.117 22.432 22.117 22.432z" fill="#F9865F"/><path fill-rule="evenodd" clip-rule="evenodd" d="M414.658 108.974c-1.216 4.763-6.489 14.286-9.937 12.571-3.448-1.714-4.665-6.095-2.232-14.475 2.434-8.38 4.462-27.426 11.36-30.855 6.895-3.428 9.937.572 9.937.572s-3.042-13.905 5.882-15.808c0 0 3.042-1.335 1.826 8.189 0 0 3.446-8.762 14.602-7.619 11.156 1.143 15.009 15.809 15.009 15.809s.813-4 5.882-4c5.072 0 12.778 7.047 10.954 14.856 0 0 12.976-3.814 19.876 5.905 6.896 9.713 6.085 20.379-10.547 24.57-17.39 4.381-17.24-14.667-19.876-17.143-2.637-2.475-5.476-5.332-15.213-1.903-9.735 3.428-19.876-6.667-19.876-6.667s-1.624 12.189-3.245 13.332c-1.624 1.143-4.868 2.666-4.059-3.047.813-5.714 1.828-5.143 1.219-6.666-.608-1.524-3.353-6.331-9.128-2.096-6.489 4.762-2.434 14.475-2.434 14.475z" fill="#2A1E33"/><path fill-rule="evenodd" clip-rule="evenodd" d="M417.929 110.538c-2.492-1.961-4.433-4.934-4.425-8.133.001-1.519.423-3.104 1.448-4.725 2.154-3.41 5.191-4.757 7.256-4.75 1.026 0 1.759.32 2.121.76.903 1.079 1.505 2.65 1.505 4.584 0 1.27-.259 2.695-.864 4.233-.151.385.058.812.468.955.411.141.864-.055 1.016-.44.662-1.687.961-3.288.961-4.749 0-2.22-.691-4.122-1.843-5.5-.765-.905-2.006-1.328-3.364-1.327-2.756.008-6.213 1.691-8.614 5.475-1.164 1.833-1.673 3.703-1.671 5.484.008 3.774 2.227 7.09 4.989 9.271a.826.826 0 001.113-.091.714.714 0 00-.096-1.047z" fill="#2A1E33"/><path fill-rule="evenodd" clip-rule="evenodd" d="M322.332 475.186l1.937 4.176-5.969 21.859c-.751 2.751.221 5.665 2.51 7.522l29.549-41.017c2.806-3.896 2.171-9.132-1.502-12.333l-6.601-5.758-19.924 25.551z" fill="#000"/><path fill-rule="evenodd" clip-rule="evenodd" d="M424.541 76.569c-.016-.046-.602-1.835-2.08-3.882-1.475-2.043-3.87-4.369-7.503-5.346-.419-.111-.857.116-.977.51-.119.394.123.805.544.918 3.15.844 5.277 2.883 6.627 4.75a15.518 15.518 0 011.451 2.46c.152.321.259.583.329.762l.077.204.021.059c.128.392.57.613.988.493.417-.122.651-.536.523-.928z" fill="#2A1E33"/><path fill-rule="evenodd" clip-rule="evenodd" d="M280.666 234.041l81.858-107.378a.714.714 0 00-.181-1.036.824.824 0 00-1.104.172l-81.858 107.378a.715.715 0 00.182 1.037.825.825 0 001.103-.173zm114.331-100.75c-.642.791-1.142 1.916-1.513 3.273-.369 1.355-.591 2.938-.591 4.603.001 2.889.667 6.038 2.515 8.605 1.84 2.569 4.919 4.492 9.43 4.814 1.139.084 2.246.123 3.316.123 11.918-.003 19.358-4.793 19.437-4.842a.715.715 0 00.204-1.032.821.821 0 00-1.099-.192l-.07.043c-.765.471-7.733 4.542-18.472 4.539-1.029 0-2.095-.038-3.192-.119-4.102-.315-6.631-1.949-8.245-4.167-1.61-2.223-2.247-5.095-2.244-7.772 0-1.539.209-3.01.543-4.236.328-1.225.798-2.209 1.234-2.735a.712.712 0 00-.145-1.04.825.825 0 00-1.108.135zM213.77 84.665c.002.002.58.722 1.478 1.872 1.346 1.726 3.399 4.416 5.247 7.05 1.847 2.623 3.497 5.243 3.984 6.637.137.389.585.6.999.469.414-.129.639-.549.501-.938-.412-1.15-1.29-2.665-2.388-4.363-3.287-5.07-8.553-11.612-8.559-11.622a.827.827 0 00-1.108-.145.713.713 0 00-.154 1.04zm350.479 156.04c.094.076 2.584 1.953 7.405 1.951 3.116.002 7.187-.785 12.173-3.29 1.68-.829 2.561-2.186 2.55-3.546-.002-1.159-.601-2.259-1.588-3.055-.986-.797-2.371-1.302-3.983-1.302-.623 0-1.278.076-1.959.235-1.347.317-2.781.439-4.17.439-2.087 0-4.076-.275-5.533-.552a30.744 30.744 0 01-2.212-.502l-.156-.045c-.416-.123-.86.094-.991.486-.132.39.099.807.515.931.043.01 3.912 1.164 8.377 1.166 1.487 0 3.045-.129 4.554-.482a6.88 6.88 0 011.575-.191c1.263.001 2.268.39 2.953.942.686.555 1.038 1.263 1.037 1.93-.011.772-.429 1.575-1.715 2.237-4.795 2.408-8.594 3.113-11.427 3.115-2.189 0-3.808-.423-4.874-.835a8.464 8.464 0 01-1.18-.558l-.279-.172-.06-.043-.009-.008-.146.171.147-.168-.001-.003-.146.171.147-.168a.824.824 0 00-1.111.101.712.712 0 00.107 1.045zm26.022-9.437s.084.092.239.271c.545.623 1.924 2.253 3.151 4.126 1.234 1.864 2.276 4.013 2.257 5.435l-.003.132c-.016.41.326.754.762.769.436.015.802-.304.817-.714l.005-.187c-.005-1.152-.411-2.362-.982-3.567-1.718-3.598-5.025-7.201-5.046-7.231a.828.828 0 00-1.114-.08.71.71 0 00-.086 1.046zm-87.036-.752l.054-.065c.286-.345 1.703-1.991 3.815-3.582 2.112-1.596 4.908-3.113 7.91-3.309.437-.029.764-.385.732-.793-.03-.408-.409-.717-.844-.687-3.729.256-6.937 2.167-9.229 3.971-2.292 1.811-3.679 3.545-3.702 3.573a.713.713 0 00.158 1.039.825.825 0 001.106-.147zm-228.557-89.941l.03-.085c.172-.459 1.084-2.702 3.081-4.991 2.003-2.294 5.054-4.621 9.586-5.384.43-.072.716-.458.639-.861-.078-.404-.487-.673-.917-.6-5.312.889-8.813 3.774-10.949 6.4-2.139 2.629-2.956 5.014-2.975 5.066-.135.391.095.809.51.934.416.125.862-.089.995-.479zm26.036 139.973l-12.103 21.741.701.342-.68-.377c-.013.02-7.32 11.633-14.633 28.148-7.309 16.518-14.638 37.931-14.643 57.625 0 6.684.846 13.171 2.839 19.201.13.392.572.61.99.488.417-.12.65-.537.52-.927-1.935-5.855-2.768-12.196-2.768-18.762-.005-19.352 7.25-40.638 14.522-57.055a260.737 260.737 0 019.998-20.146 212.168 212.168 0 013.292-5.764c.397-.67.71-1.184.921-1.531.212-.346.323-.521.323-.521l12.122-21.775c.202-.362.052-.81-.335-1-.386-.19-.865-.051-1.066.313zm36.733 73.468l39.261-63.199-.683-.375.651.422c0-.001 12.865-17.523 26.389-36.283 6.763-9.38 13.691-19.07 19.258-27.035 2.784-3.983 5.228-7.536 7.144-10.405 1.918-2.873 3.3-5.049 3.987-6.338l-.706-.331.695.354 18.158-31.548a.72.72 0 00-.319-1.006c-.385-.195-.864-.061-1.072.3l-18.158 31.547-.011.021c-.631 1.184-2.008 3.361-3.913 6.212-6.674 9.998-19.868 28.426-31.386 44.339a6164.562 6164.562 0 01-15.004 20.635c-1.951 2.672-3.543 4.845-4.646 6.352l-1.718 2.344-.032.046-39.261 63.2c-.219.353-.093.808.285 1.015.376.207.862.087 1.081-.267z" fill="#2A1E17"/><path fill-rule="evenodd" clip-rule="evenodd" d="M285.039 240.94c.007.005 17.469 11.961 37.531 24.211 10.033 6.125 20.713 12.324 30.201 17.145 9.501 4.818 17.747 8.27 23.161 8.884.433.048.827-.243.878-.65.052-.407-.258-.776-.691-.824-4.939-.536-13.185-3.923-22.595-8.715-14.141-7.185-31.041-17.503-44.392-26.018a1030.154 1030.154 0 01-16.591-10.811 967.859 967.859 0 01-4.832-3.239c-1.128-.763-1.737-1.181-1.739-1.182a.826.826 0 00-1.105.163.711.711 0 00.174 1.036zm35.972-118.267v.03c0 .441.016 8.002 1.097 16.995 1.093 8.999 3.2 19.407 7.582 25.69a.82.82 0 001.094.213.715.715 0 00.226-1.028c-4.105-5.837-6.273-16.145-7.332-25.042-1.07-8.904-1.086-16.421-1.086-16.828v-.007c.006-.41-.343-.747-.779-.753-.437-.006-.795.321-.802.73zm153.857 58.95c-.5 2.878-2.68 6.781-5.695 10.906-4.518 6.202-10.879 12.967-16.102 18.168a283.804 283.804 0 01-6.616 6.371 221.667 221.667 0 01-2.692 2.466.71.71 0 00-.03 1.049.824.824 0 001.117.028c.011-.008 7.31-6.511 14.898-14.574 3.794-4.034 7.66-8.456 10.73-12.669 3.066-4.219 5.354-8.199 5.95-11.502.071-.405-.22-.787-.65-.854-.431-.068-.838.205-.91.611zM262.331 331.834c0 2.149-1.856 3.892-4.145 3.892-2.291 0-4.146-1.743-4.146-3.892 0-2.15 1.855-3.894 4.146-3.894 2.289 0 4.145 1.744 4.145 3.894zm384.811 83.654l.782-.107-2.039-13.247 10.5 6.555-5.256 1.077a.785.785 0 00-.454.268l-4.156 4.997.623.457.782-.107-.782.107.623.456 3.98-4.786 6.799-1.392a.764.764 0 00.609-.588.721.721 0 00-.34-.754l-13.524-8.446a.836.836 0 00-.862-.009.726.726 0 00-.358.734l2.29 14.891a.762.762 0 00.579.611.815.815 0 00.827-.261l-.623-.456z" fill="#2A1E17"/><path fill-rule="evenodd" clip-rule="evenodd" d="M199.111 160.732c-3.642-3.016-7.666-4.63-11.513-4.63-4.12-.009-7.985 1.89-10.715 5.674-2.739 3.782-4.408 9.41-4.408 16.997.006 14.586 6.164 36.469 23.291 66.686 17.13 30.215 45.242 68.753 89.218 116.579 29.702 32.305 57.305 54.867 81.312 69.368 24.01 14.496 44.417 20.949 59.805 20.955 7.798 0 14.321-1.667 19.321-4.832 5-3.16 8.44-7.823 10.08-13.665 2.142-7.611 3.057-14.528 3.057-20.759.002-14.478-4.95-25.239-10.875-32.372-2.964-3.568-6.168-6.232-9.132-8.015-2.972-1.78-5.679-2.699-7.794-2.708-.996 0-1.895.212-2.583.738-.692.525-1.062 1.36-1.053 2.276.005 1.083.44 2.326 1.314 3.794.876 1.468 2.207 3.161 4.075 5.098 9.515 9.857 23.887 17.466 41.189 22.631 17.304 5.162 37.549 7.872 58.844 7.874 33.118-.002 68.779-6.559 99.836-20.724 15.399-7.024 25.401-14.931 31.554-23.06 6.154-8.126 8.432-16.471 8.432-24.269 0-9.968-3.696-19.041-7.683-25.832-1.993-3.396-4.064-6.223-5.795-8.311a40.356 40.356 0 00-2.297-2.561c-.655-.659-1.154-1.105-1.549-1.372a.826.826 0 00-1.102.177.713.713 0 00.188 1.035c.212.138.699.555 1.304 1.171 2.148 2.17 6.011 6.895 9.31 13.169 3.302 6.278 6.045 14.107 6.045 22.524-.003 7.53-2.182 15.531-8.141 23.409-5.962 7.877-15.732 15.638-30.957 22.584-30.8 14.052-66.247 20.577-99.145 20.575-21.151 0-41.249-2.697-58.365-7.804-17.119-5.105-31.248-12.625-40.496-22.212-1.812-1.877-3.074-3.495-3.869-4.828-.798-1.332-1.116-2.38-1.111-3.068.011-.594.185-.896.476-1.129.294-.231.816-.402 1.579-.4 1.614-.009 4.148.785 6.942 2.473 8.411 5.06 19.28 17.907 19.278 39.137 0 6.094-.895 12.883-3.005 20.381-1.562 5.537-4.758 9.848-9.435 12.813-4.679 2.963-10.874 4.578-18.437 4.578-14.919.006-35.108-6.314-58.95-20.719-23.844-14.401-51.348-36.871-80.971-69.089-43.918-47.764-71.964-86.224-89.018-116.308-17.058-30.079-23.111-51.791-23.106-65.988-.002-7.386 1.638-12.723 4.134-16.161 2.506-3.437 5.805-5.016 9.408-5.025 3.367-.002 7.044 1.422 10.466 4.259a.827.827 0 001.116-.066.712.712 0 00-.069-1.048z" fill="#2A1E17"/><path fill-rule="evenodd" clip-rule="evenodd" d="M637.297 390.727c0 2.149-1.854 3.894-4.145 3.894-2.29 0-4.146-1.745-4.146-3.894 0-2.15 1.856-3.893 4.146-3.893 2.291 0 4.145 1.743 4.145 3.893z" fill="#2A1E17"/><path fill-rule="evenodd" clip-rule="evenodd" d="M573.216 423.148l122.882-65.042c.381-.2.516-.653.301-1.011-.215-.356-.696-.482-1.077-.282l-122.883 65.042c-.381.201-.515.654-.3 1.011.213.357.696.484 1.077.282zM205.291 164.436c0 2.15-1.858 3.894-4.147 3.894s-4.145-1.744-4.145-3.894c0-2.149 1.856-3.894 4.145-3.894 2.289 0 4.147 1.745 4.147 3.894z" fill="#2A1E17"/><path fill-rule="evenodd" clip-rule="evenodd" d="M315.745 84.062c0 4.614-3.98 8.352-8.894 8.352-4.911 0-8.893-3.738-8.893-8.352 0-4.612 3.982-8.352 8.893-8.352 4.914 0 8.894 3.74 8.894 8.352z" fill="#FF6D66"/><path fill-rule="evenodd" clip-rule="evenodd" d="M145.461 20.361c-2.16 0-3.91 1.644-3.91 3.671 0 2.028 1.75 3.672 3.91 3.672 2.159 0 3.911-1.644 3.911-3.672 0-2.027-1.752-3.67-3.911-3.67z" fill="#A0C6F4"/><path fill-rule="evenodd" clip-rule="evenodd" d="M673.262 472.698c0 2.028-1.75 3.671-3.909 3.671-2.158 0-3.91-1.643-3.91-3.671 0-2.028 1.752-3.673 3.91-3.673 2.159 0 3.909 1.645 3.909 3.673z" fill="#FAD8B0"/><path fill-rule="evenodd" clip-rule="evenodd" d="M599.493 306.884l-42.03-18.524c-3.391-1.495-3.333-6.042.096-7.46l78.197-32.31a4.625 4.625 0 013.478-.015l53.711 21.65-93.452 36.659z" fill="#2A1E33"/><path fill-rule="evenodd" clip-rule="evenodd" d="M596.89 246.008c.106 16.333 2.603 60.876 2.603 60.876l93.452-36.659-2.096-61.982c-.128-3.804-4.34-6.259-8.026-4.681l-80.463 34.432c-3.345 1.431-5.493 4.563-5.47 8.014z" fill="#C6CBCB"/><path fill-rule="evenodd" clip-rule="evenodd" d="M599.798 307.568l93.451-36.657a.743.743 0 00.485-.71l-2.095-61.982-.003-.04c-.008-.057-.125-1.406-.944-2.83-.411-.711-1.007-1.446-1.874-2.004-.865-.561-1.997-.928-3.377-.925-.851 0-1.794.136-2.846.431-.417.117-.654.531-.529.925.126.392.566.614.985.497.926-.261 1.718-.368 2.39-.368 1.092.003 1.87.272 2.482.664.913.584 1.467 1.511 1.775 2.318.153.401.247.768.299 1.028l.054.301.009.076.002.015.787-.064-.789.023 2.077 61.472-92.947 36.46c-.404.159-.595.594-.426.971.168.378.631.556 1.034.399z" fill="#2A1E17"/><path fill-rule="evenodd" clip-rule="evenodd" d="M645.453 262.623l6.309-14.005c.17-.377-.018-.814-.419-.972-.403-.161-.867.016-1.037.393l-6.309 14.005c-.171.377.017.813.42.972.402.16.865-.016 1.036-.393zm6.309 0l6.309-14.005c.171-.377-.017-.814-.419-.972-.401-.161-.866.016-1.035.393l-6.311 14.005c-.169.377.019.813.421.972.401.16.866-.016 1.035-.393z" fill="#2A1E17"/><path fill-rule="evenodd" clip-rule="evenodd" d="M166.227 411.422c0 2.029-1.75 3.673-3.911 3.673-2.159 0-3.908-1.644-3.908-3.673 0-2.026 1.749-3.67 3.908-3.67 2.161 0 3.911 1.644 3.911 3.67zm331.178 18.19c0 2.818-2.433 5.101-5.432 5.101-3.002 0-5.433-2.283-5.433-5.101 0-2.817 2.431-5.1 5.433-5.1 2.999 0 5.432 2.283 5.432 5.1z" fill="#FF6D66"/><path fill-rule="evenodd" clip-rule="evenodd" d="M202.836 465.86c6.363 2.865 24.872 10.093 49.37 9.942 1.339-.009 2.378 1.106 2.209 2.354l-3.412 25.424c-.12.906-.847 1.628-1.804 1.798-6.919 1.218-34.81 4.814-55.673-11.802a2.003 2.003 0 01-.694-2.126l6.895-24.237c.36-1.267 1.851-1.917 3.109-1.353z" fill="#FFF7DC"/><path fill-rule="evenodd" clip-rule="evenodd" d="M204.645 473.764c.003.005 3.021 3.987 6.584 8.262 1.782 2.139 3.699 4.35 5.454 6.182 1.766 1.836 3.315 3.276 4.567 3.951.527.275 1.124.363 1.775.364 1.847-.009 4.316-.727 7.116-1.768 8.355-3.125 19.383-9.305 19.402-9.314.374-.209.498-.665.275-1.017a.824.824 0 00-1.085-.258c0 .002-.302.169-.847.468-1.913 1.046-6.793 3.667-11.888 6.016-2.547 1.176-5.147 2.284-7.444 3.09-2.289.81-4.303 1.306-5.529 1.299-.49.003-.831-.08-.997-.173-.896-.463-2.468-1.864-4.17-3.65-2.572-2.687-5.562-6.272-7.898-9.179a282.043 282.043 0 01-2.893-3.657c-.715-.922-1.134-1.475-1.135-1.476a.823.823 0 00-1.102-.175.713.713 0 00-.185 1.036" fill="#2A1E17"/><path fill-rule="evenodd" clip-rule="evenodd" d="M232.434 489.814l12.663 12.223c.304.293.805.3 1.118.014a.71.71 0 00.014-1.05l-12.661-12.222a.828.828 0 00-1.118-.015.71.71 0 00-.016 1.05zm-17.231-3.589l-14.809 3.78c-.421.107-.671.515-.555.911.114.395.548.628.969.521l14.809-3.78c.422-.107.67-.515.557-.911-.116-.395-.549-.628-.971-.521z" fill="#2A1E17"/><path fill-rule="evenodd" clip-rule="evenodd" d="M576.387 178.388h14.145v-13.284h-14.145v13.284z" fill="#FFE1C0"/><path fill-rule="evenodd" clip-rule="evenodd" d="M578.305 344.282l8.408 13.677h-16.817l8.409-13.677z" fill="#A0C6F4"/><path fill-rule="evenodd" clip-rule="evenodd" d="M238.331 41.329l.79.023 1.096-31.045v-.052l-.007-.333c.004-1.206.279-1.871.653-2.286.375-.414.946-.67 1.777-.844 5.429-1.129 17.508-3.652 32.751-3.654 9.932 0 21.201 1.074 32.829 4.302 1.551.432 2.277.967 2.647 1.469.37.503.457 1.076.458 1.78 0 .225-.009.461-.017.705v-.002l-1.063 29.598c-.028.747-.406 1.4-1.052 1.9-.645.498-1.554.814-2.563.812-.221 0-.447-.014-.675-.046-7.882-1.082-18.254-1.486-29.01-1.487-1.178 0-2.362.006-3.545.015-12.409.1-23.464.962-31.255 2.369a4.06 4.06 0 01-.738.071c-.872-.015-1.325-.29-1.707-.794-.372-.508-.587-1.317-.584-2.246l.005-.229v-.003l-.79-.023-.789-.027-.006.282c.003 1.125.234 2.209.855 3.077.61.876 1.698 1.463 3.016 1.448a5.86 5.86 0 001.037-.098c7.64-1.382 18.634-2.246 30.969-2.343a468.13 468.13 0 013.532-.015c10.71 0 21.036.407 28.781 1.473.305.041.607.06.904.06 1.356 0 2.615-.418 3.565-1.147.947-.724 1.589-1.787 1.63-2.998l1.062-29.598v-.002c.008-.237.019-.488.019-.753.002-.801-.096-1.75-.738-2.623-.641-.871-1.749-1.564-3.499-2.048-11.806-3.278-23.226-4.363-33.278-4.363-15.421 0-27.645 2.556-33.092 3.687-.988.205-1.943.569-2.639 1.333-.695.766-1.034 1.84-1.03 3.248l.007.39.791-.029-.791-.025-1.095 31.045v-.001l.789.027z" fill="#2A1E17"/><path fill-rule="evenodd" clip-rule="evenodd" d="M248.325 36.789l.601.482 16.728-18.391 18.528 17.17.555-.529.245-.706c-1.744-.524-4.585-.686-8.048-.692-11.237.001-28.687 1.928-28.702 1.93l.093.736.601.482-.601-.482.091.738c.004 0 1.087-.12 2.893-.3 5.418-.54 17.323-1.62 25.625-1.62 3.384-.004 6.203.196 7.558.62a.816.816 0 00.92-.32.709.709 0 00-.121-.914l-19.131-17.73a.814.814 0 00-.588-.214.81.81 0 00-.568.26l-17.282 18.997a.709.709 0 00-.094.833.803.803 0 00.788.388l-.091-.738z" fill="#2A1E17"/><path fill-rule="evenodd" clip-rule="evenodd" d="M276.693 27.166l13.504-10.15 10.97 7.352.401 11.166-16.793-.756c-.437-.019-.807.297-.829.707-.02.41.316.757.753.776l17.65.793c.22.01.436-.067.593-.212a.726.726 0 00.235-.554l-.444-12.338a.735.735 0 00-.33-.579l-11.773-7.89a.83.83 0 00-.953.026l-13.972 10.5a.712.712 0 00-.123 1.043c.273.32.77.371 1.111.116zm-20.848-11.27l-.784.085.011.184c-.002.464-.215.893-.618 1.244-.403.346-.996.595-1.703.63l-.177.005c-.714.002-1.378-.224-1.864-.577-.488-.354-.784-.814-.842-1.305l-.011-.183c0-.464.215-.895.618-1.245.403-.346.996-.594 1.701-.631l.18-.005c.713-.001 1.377.224 1.862.578.487.353.783.815.843 1.305l.784-.085.786-.083c-.116-.947-.677-1.756-1.447-2.313-.773-.558-1.766-.885-2.828-.886l-.267.007c-1.048.054-1.989.425-2.681 1.019-.691.589-1.134 1.423-1.132 2.34l.02.351c.116.946.679 1.755 1.449 2.311.773.56 1.765.887 2.829.887l.264-.006c1.05-.055 1.991-.426 2.683-1.02.691-.59 1.132-1.424 1.132-2.338l-.022-.352-.786.083zm316.672 428.771l-.696.354 11.593 20.103.028.046c.473.696.618 1.19.617 1.53-.003.446-.217.793-.749 1.267-4.949 4.306-19.921 17.356-41.824 22.433a5.552 5.552 0 01-1.236.162c-.684-.009-.989-.169-1.277-.408-.283-.243-.519-.634-.778-1.09l-11.042-19.171a1.508 1.508 0 01-.203-.757c-.009-.792.634-1.733 1.766-2.16 6.049-2.298 13.703-6.19 21.293-10.442 7.85-4.4 14.539-8.812 18.945-12.437.465-.378.817-.478 1.103-.481.28.002.565.103.879.34.312.238.625.61.885 1.065l.696-.354.694-.353c-.337-.583-.754-1.107-1.276-1.507-.515-.398-1.162-.675-1.878-.675-.738-.002-1.481.298-2.145.849-4.29 3.532-10.925 7.915-18.714 12.278-7.547 4.23-15.165 8.098-21.073 10.341-1.665.634-2.746 2.037-2.755 3.536 0 .498.126 1.001.392 1.463l11.044 19.171c.257.442.551.994 1.09 1.471.536.481 1.347.815 2.354.806.484 0 1.015-.067 1.616-.207 22.345-5.182 37.529-18.451 42.519-22.785.671-.576 1.26-1.351 1.255-2.355-.002-.732-.296-1.49-.863-2.329l-.668.399.694-.353-11.592-20.103-.694.353z" fill="#2A1E17"/><path fill-rule="evenodd" clip-rule="evenodd" d="M567.965 451.038l-.778-.131-3.307 17.315-18.347-4.386-.196.718.169.726c1.451-.307 3.483-1.3 5.876-2.631 7.128-3.981 17.046-11.012 17.059-11.019l-.476-.592-.778-.131.778.131-.476-.593c-.003.002-1.097.777-2.825 1.961-2.589 1.777-6.595 4.467-10.406 6.802-1.905 1.166-3.763 2.243-5.361 3.07-1.59.827-2.955 1.399-3.728 1.552a.75.75 0 00-.621.712.75.75 0 00.594.732l19.171 4.584a.835.835 0 00.623-.095.743.743 0 00.351-.493l3.456-18.102a.726.726 0 00-.364-.763.835.835 0 00-.89.04l.476.593z" fill="#2A1E17"/><path fill-rule="evenodd" clip-rule="evenodd" d="M553.561 466.985l-4.506 11.023-9.618-.82-4.499-6.69 10.766-5.285c.387-.19.536-.639.335-1.002-.202-.364-.68-.505-1.067-.315l-11.526 5.659a.752.752 0 00-.397.465.7.7 0 00.095.589l5.165 7.682a.8.8 0 00.597.343l10.602.903a.799.799 0 00.809-.474l4.719-11.546c.156-.383-.048-.812-.454-.959-.408-.147-.865.044-1.021.427zm17.897-.05l.633-.445a.923.923 0 01-.206-.588c-.003-.404.255-.903.805-1.244a2.198 2.198 0 011.149-.333c.507.002.918.186 1.146.474.141.178.204.37.206.586.003.404-.255.904-.807 1.246a2.2 2.2 0 01-1.149.331c-.507-.002-.917-.184-1.144-.472l-1.265.89c.582.725 1.499 1.068 2.409 1.066.689 0 1.396-.19 2.022-.577.945-.588 1.511-1.516 1.514-2.484a2.35 2.35 0 00-.521-1.478c-.582-.725-1.499-1.068-2.411-1.066a3.847 3.847 0 00-2.02.579c-.947.588-1.512 1.515-1.515 2.482a2.347 2.347 0 00.522 1.478l.632-.445z" fill="#2A1E17"/><path fill-rule="evenodd" clip-rule="evenodd" d="M516.081 101.48l47.102 33.854c1.032.742 2.512.545 3.286-.438l7.111-9.051c.74-.944.556-2.27-.419-3.003L526.723 87.95c-1.037-.78-2.557-.585-3.337.425l-7.776 10.09c-.74.959-.531 2.296.471 3.015z" fill="#fff"/><path fill-rule="evenodd" clip-rule="evenodd" d="M516.08 101.48l-.48.589 47.101 33.854a3.237 3.237 0 001.892.603c.952.002 1.899-.413 2.511-1.189l7.111-9.051a2.809 2.809 0 00.608-1.737c.002-.858-.403-1.711-1.17-2.286l-46.437-34.892a3.235 3.235 0 00-1.945-.642c-.959 0-1.916.42-2.526 1.21l-7.776 10.091a2.795 2.795 0 00-.593 1.715c-.002.878.424 1.751 1.224 2.326l.48-.591.479-.589a1.41 1.41 0 01-.602-1.146c0-.294.093-.587.292-.845l7.777-10.09a1.564 1.564 0 011.245-.597c.339.002.671.103.958.316l46.438 34.892c.378.285.574.701.575 1.128 0 .299-.096.595-.3.855l-7.111 9.051a1.57 1.57 0 01-1.238.587c-.327 0-.651-.095-.932-.297l-47.1-33.854-.481.589z" fill="#2A1E17"/><path fill-rule="evenodd" clip-rule="evenodd" d="M519.566 99.97l11.422 7.527 6.741-7.555-11.427-8.948-6.736 8.976z" fill="#FF6D66"/><path fill-rule="evenodd" clip-rule="evenodd" d="M535.29 110.432l11.436 8.521 6.13-7.082-11.512-8.774-6.054 7.335z" fill="#FAD8B0"/><path fill-rule="evenodd" clip-rule="evenodd" d="M550.575 122.226l11.423 7.528 5.44-6.566-10.821-8.502-6.042 7.54z" fill="#A0C6F4"/><path fill-rule="evenodd" clip-rule="evenodd" d="M610.062 54.15l10.733 84.701c.234 1.858 2.047 3.174 4.021 2.92l18.174-2.337c1.895-.243 3.248-1.85 3.062-3.638l-8.809-85.123c-.197-1.903-2.048-3.265-4.061-2.987l-20.097 2.76c-1.912.262-3.252 1.906-3.023 3.705z" fill="#fff"/><path fill-rule="evenodd" clip-rule="evenodd" d="M610.063 54.151l-.785.088 10.732 84.7c.266 2.081 2.145 3.606 4.319 3.606.196 0 .395-.012.594-.039l18.175-2.337c2.174-.28 3.763-2.023 3.763-4.045l-.021-.399-8.808-85.125c-.223-2.123-2.123-3.692-4.329-3.692a4.4 4.4 0 00-.635.043l-20.096 2.76c-2.161.299-3.724 2.037-3.724 4.04 0 .161.009.325.03.49v-.002l.785-.088.784-.089-.019-.31c0-1.272.995-2.384 2.372-2.571l20.097-2.761.406-.029c1.398 0 2.617 1.001 2.756 2.353l8.808 85.123.013.257c0 1.283-1.012 2.398-2.397 2.574l-18.173 2.338-.381.024c-1.38 0-2.583-.971-2.749-2.297l-10.733-84.7-.784.088z" fill="#2A1E17"/><path fill-rule="evenodd" clip-rule="evenodd" d="M615.553 56.131l3.401 19.81 16.026-1.118-1.742-21.333-17.685 2.641z" fill="#FF6D66"/><path fill-rule="evenodd" clip-rule="evenodd" d="M620.113 83.508l2.256 20.889 14.825-1.244-2.042-21.236-15.039 1.591z" fill="#91BA83"/><path fill-rule="evenodd" clip-rule="evenodd" d="M622.65 111.86l3.402 19.811 13.483-1.403-1.617-20.231-15.268 1.823z" fill="#FAD8B0"/><path fill-rule="evenodd" clip-rule="evenodd" d="M586.633 72.185l29.722 82.043c.51 1.408 2.153 2.151 3.642 1.646l18.616-6.293c1.434-.484 2.202-1.945 1.744-3.307l-27.91-82.853c-.489-1.45-2.169-2.221-3.687-1.694l-20.429 7.105c-1.44.501-2.194 1.989-1.698 3.353z" fill="#fff"/><path fill-rule="evenodd" clip-rule="evenodd" d="M586.633 72.185l-.749.24 29.723 82.042c.514 1.418 1.924 2.308 3.431 2.308.407 0 .823-.065 1.226-.202l18.618-6.294c1.473-.499 2.398-1.802 2.398-3.202 0-.341-.055-.687-.169-1.026l-27.912-82.854c-.491-1.458-1.922-2.38-3.455-2.379-.419 0-.846.069-1.259.213l-20.429 7.104c-1.458.51-2.367 1.806-2.367 3.192 0 .364.064.737.195 1.099v-.002l.749-.239.748-.24a1.774 1.774 0 01-.111-.618c.002-.78.512-1.514 1.335-1.799l20.429-7.105c.237-.081.474-.12.71-.12.863 0 1.674.52 1.949 1.34l27.91 82.855c.065.193.096.387.096.579-.001.788-.521 1.526-1.353 1.805l-18.616 6.294a2.155 2.155 0 01-.692.115c-.849-.002-1.646-.502-1.934-1.302l-29.723-82.043v-.001l-.748.24z" fill="#2A1E17"/><path fill-rule="evenodd" clip-rule="evenodd" d="M592.668 73.68l7.715 18.715 15.429-4.227-6.431-20.524-16.713 6.035z" fill="#A0C6F4"/><path fill-rule="evenodd" clip-rule="evenodd" d="M603.193 99.568l6.831 19.992 14.226-4.112-6.699-20.374-14.358 4.494z" fill="#F9865F"/><path fill-rule="evenodd" clip-rule="evenodd" d="M611.953 126.804l7.715 18.714 12.879-4.007-6.063-19.473-14.531 4.766z" fill="#FAD8B0"/><path fill-rule="evenodd" clip-rule="evenodd" d="M362.627 211.158H212.535c-4.787 0-8.668-3.642-8.668-8.139v-19.064c0-4.497 3.881-8.141 8.668-8.141h150.092c4.788 0 8.669 3.644 8.669 8.141v19.064c0 4.497-3.881 8.139-8.669 8.139z" fill="#7595EC"/><path fill-rule="evenodd" clip-rule="evenodd" d="M306.393 191.599h-81.825c-1.582 0-2.863-1.204-2.863-2.69 0-1.485 1.281-2.689 2.863-2.689h81.825c1.582 0 2.864 1.204 2.864 2.689 0 1.486-1.282 2.69-2.864 2.69z" fill="#fff"/><path fill-rule="evenodd" clip-rule="evenodd" d="M222.522 199.309h139.103c.436 0 .79-.333.79-.742 0-.41-.354-.742-.79-.742H222.522c-.436 0-.79.332-.79.742 0 .409.354.742.79.742z" fill="#2A1E17"/><path fill-rule="evenodd" clip-rule="evenodd" d="M153.725 111.763l-2.369-2.437-7.841 6.725 2.369 2.435c.999 1.027 2.696 1.1 3.79.161l3.879-3.326c1.094-.938 1.171-2.532.172-3.558z" fill="#91BA83"/><path fill-rule="evenodd" clip-rule="evenodd" d="M140.053 96.001l-.584.5 11.163 11.477a.683.683 0 01-.049 1.006l-7.713 6.615a.78.78 0 01-.511.187.776.776 0 01-.561-.233l-11.163-11.475a.683.683 0 01.049-1.006l7.713-6.615a.783.783 0 01.511-.187.783.783 0 01.561.231l.584-.5.583-.502a2.409 2.409 0 00-1.728-.714c-.561 0-1.13.192-1.578.575l-7.713 6.616a2.136 2.136 0 00-.76 1.623 2.116 2.116 0 00.612 1.481l11.162 11.475a2.416 2.416 0 001.728.716c.56 0 1.13-.192 1.576-.575l7.715-6.616c.502-.432.762-1.03.76-1.623a2.106 2.106 0 00-.612-1.481l-11.161-11.475-.584.5z" fill="#2A1E17"/><path fill-rule="evenodd" clip-rule="evenodd" d="M104.365 168.749h14.023v-12.025h-14.023v12.025z" fill="#FF6D66"/><path fill-rule="evenodd" clip-rule="evenodd" d="M103.574 148.987v6.995h-7.597c-.438 0-.791.333-.791.743 0 .409.353.742.79.742h8.388a.824.824 0 00.56-.217.724.724 0 00.231-.525v-7.738c0-.409-.354-.742-.791-.742-.436 0-.79.333-.79.742z" fill="#2A1E17"/><path fill-rule="evenodd" clip-rule="evenodd" d="M566.368 32.963h14.025V20.937h-14.025v12.026z" fill="#FAD8B0"/><path fill-rule="evenodd" clip-rule="evenodd" d="M565.577 13.2v6.994h-7.596c-.438 0-.79.333-.79.742 0 .412.352.743.79.743h8.387a.823.823 0 00.559-.217.725.725 0 00.231-.526V13.2c0-.41-.354-.742-.79-.742-.437 0-.791.333-.791.742zm-378.45 81.376c-26.487-10.31-51.882-15.15-74.088-15.15-22.78 0-42.218 5.092-56.008 14.657-13.794 9.558-21.885 23.64-21.874 41.348.006 21.18 11.482 47.499 38.185 77.832 26.709 30.333 68.674 64.693 129.799 101.92 21.808 13.264 54.937 17.848 54.987 17.865.432.06.833-.22.898-.625.063-.406-.234-.784-.667-.844-.002 0-.506-.071-1.447-.221-6.581-1.048-34.231-6.033-52.911-17.42-61.03-37.168-102.877-71.45-129.442-101.621-26.569-30.172-37.828-56.222-37.821-76.886.01-17.28 7.809-30.828 21.232-40.155 13.426-9.32 32.534-14.367 55.069-14.367 21.961 0 47.165 4.794 73.483 15.038.403.158.865-.022 1.032-.4.168-.38-.024-.814-.427-.971z" fill="#2A1E17"/><path fill-rule="evenodd" clip-rule="evenodd" d="M57.258 99.068c0 2.15-1.856 3.893-4.145 3.893-2.289 0-4.146-1.743-4.146-3.893 0-2.15 1.857-3.894 4.146-3.894 2.29 0 4.145 1.745 4.145 3.894zM26.732 77.701l.549.535 4.108-3.704 9.652 5.185 4.619 13.379-14.11-5.545-4.078-10.112-.74.263.549.534-.549-.535-.738.263 4.199 10.412a.77.77 0 00.434.422l16.01 6.291a.83.83 0 00.84-.138.712.712 0 00.217-.774l-5.243-15.19a.755.755 0 00-.36-.416l-10.43-5.604a.828.828 0 00-.939.109l-4.537 4.09a.71.71 0 00-.191.798l.738-.263z" fill="#2A1E17"/><path fill-rule="evenodd" clip-rule="evenodd" d="M31.269 73.612l-.547-.536L26.8 76.61l-1.532-1.745 3.248-2.925 2.176 2.18.577-.508-.547-.536.547.536.577-.508-2.722-2.727A.83.83 0 0028 70.349l-4.356 3.92a.71.71 0 00-.063 1.008l2.54 2.896c.141.16.345.257.565.27a.822.822 0 00.594-.207l4.536-4.089a.714.714 0 00.03-1.043l-.577.508zm16.258 20.293l-10.412-10.74a.826.826 0 00-1.116-.05.71.71 0 00-.052 1.048l10.41 10.74a.828.828 0 001.118.05.71.71 0 00.052-1.048z" fill="#2A1E17"/><path fill-rule="evenodd" clip-rule="evenodd" d="M72.14 366.932l11.302 54.678c.247 1.198 1.494 1.975 2.767 1.721l11.717-2.337c1.222-.243 2.02-1.351 1.808-2.507l-10.068-55.042c-.224-1.23-1.5-2.033-2.796-1.762l-12.95 2.698c-1.23.257-2.018 1.388-1.78 2.551z" fill="#fff"/><path fill-rule="evenodd" clip-rule="evenodd" d="M72.14 366.932l-.774.141 11.3 54.678c.29 1.402 1.594 2.37 3.057 2.37.215 0 .432-.021.648-.064l11.72-2.337c1.46-.292 2.469-1.501 2.469-2.86 0-.165-.016-.332-.046-.498l-10.069-55.044c-.264-1.431-1.584-2.431-3.07-2.431-.224 0-.45.023-.678.071l-12.947 2.699c-1.45.304-2.442 1.508-2.442 2.857 0 .185.019.372.058.559l.775-.141.776-.141-.029-.277c0-.662.49-1.261 1.205-1.408l12.947-2.699.335-.036c.728 0 1.385.495 1.513 1.2l10.069 55.042.022.247c0 .666-.498 1.266-1.217 1.408l-11.718 2.337-.32.031c-.717 0-1.367-.478-1.506-1.167l-11.301-54.68-.776.143z" fill="#2A1E17"/><path fill-rule="evenodd" clip-rule="evenodd" d="M75.817 367.973l3.224 12.751 10.38-1.45-2.22-13.814-11.384 2.513z" fill="#FF6D66"/><path fill-rule="evenodd" clip-rule="evenodd" d="M80.181 385.599l2.533 13.503 9.59-1.477-2.409-13.737-9.714 1.711z" fill="#FAD8B0"/><path fill-rule="evenodd" clip-rule="evenodd" d="M83.277 403.947l3.223 12.751 8.71-1.519-2.081-13.104-9.852 1.872z" fill="#A0C6F4"/><path fill-rule="evenodd" clip-rule="evenodd" d="M395.718 503.97l.204.717 47.049-11.827 1.293 3.45-46.696 11.382-1.085-3.909-.765.187.204.717-.204-.717-.765.188 1.285 4.627c.109.396.541.634.963.53l48.293-11.771a.787.787 0 00.5-.37c.103-.182.12-.4.047-.595l-1.821-4.86c-.137-.365-.552-.57-.95-.471l-47.756 12.005c-.42.106-.67.511-.561.905l.765-.188zm-7.38-6.046l1.378 4.071c.133.391.577.607.993.482.416-.123.647-.542.514-.932l-1.379-4.071c-.132-.39-.577-.607-.992-.482-.416.124-.647.542-.514.932z" fill="#2A1E17"/><path fill-rule="evenodd" clip-rule="evenodd" d="M388.003 501.056l4.03-1.299c.412-.133.632-.555.491-.944-.142-.387-.591-.594-1.005-.46l-4.028 1.299c-.414.132-.634.555-.492.943.143.387.592.594 1.004.461zm-1.982 12.417l2.599 7.679c.131.392.576.607.993.484.416-.125.645-.542.514-.932l-2.599-7.681c-.131-.391-.577-.607-.993-.483-.416.124-.645.541-.514.933z" fill="#2A1E17"/><path fill-rule="evenodd" clip-rule="evenodd" d="M384.8 518.823l7.175-2.14c.416-.124.647-.541.514-.932-.133-.39-.577-.607-.993-.482l-7.175 2.14c-.416.125-.647.542-.514.932.131.39.577.607.993.482zm-9.693-18.03l3.389 10.171c.13.391.574.608.99.486.417-.123.649-.538.518-.93l-3.388-10.171c-.131-.392-.573-.608-.991-.487-.416.122-.648.539-.518.931z" fill="#2A1E17"/><path fill-rule="evenodd" clip-rule="evenodd" d="M372.734 507.611l10.056-3.013c.416-.125.645-.542.512-.932-.133-.392-.577-.607-.993-.482l-10.055 3.013c-.418.124-.647.543-.514.933.133.391.577.606.994.481zM47.516 16.814l.218-.454L17.96 3.74l.889-2.305 29.388 12.71-1.205 2.463.483.207.218-.454-.218.454.482.208 1.424-2.914a.485.485 0 00-.26-.66L18.77.302l-.426-.007-.295.29-1.252 3.249a.489.489 0 00.282.623l30.22 12.81a.546.546 0 00.7-.245l-.482-.207zm1.097 6.08l1.125-2.663a.488.488 0 00-.297-.645.54.54 0 00-.688.279l-1.127 2.662a.488.488 0 00.297.646c.272.1.58-.024.69-.28z" fill="#2A1E17"/><path fill-rule="evenodd" clip-rule="evenodd" d="M50.203 21.404l-2.68-.933c-.275-.095-.58.036-.68.294a.49.49 0 00.312.64l2.68.932a.542.542 0 00.681-.293.49.49 0 00-.313-.64zm6.643-5.656l2.125-5.025a.488.488 0 00-.298-.646.542.542 0 00-.687.28L55.86 15.38a.49.49 0 00.297.647.542.542 0 00.688-.279z" fill="#2A1E17"/><path fill-rule="evenodd" clip-rule="evenodd" d="M59.9 13.455l-4.692-1.75a.542.542 0 00-.69.278.49.49 0 00.297.648l4.692 1.75a.545.545 0 00.69-.279.49.49 0 00-.297-.647zm-3.12 13.227l2.839-6.633a.488.488 0 00-.294-.647.542.542 0 00-.69.276l-2.84 6.633a.489.489 0 00.294.647.543.543 0 00.69-.276z" fill="#2A1E17"/><path fill-rule="evenodd" clip-rule="evenodd" d="M61.095 24.088l-6.584-2.444a.542.542 0 00-.688.279.488.488 0 00.299.646l6.584 2.444c.272.1.58-.024.688-.279a.488.488 0 00-.3-.646z" fill="#2A1E17"/><path fill-rule="evenodd" clip-rule="evenodd" d="M160.45 256.476c-21.302-14.403-42.231-36.783-33.051-59.772 0 0 14.688-9.195 37.946 2.299l23.257 11.495-28.152 45.978z" fill="#FAD8B0"/><path fill-rule="evenodd" clip-rule="evenodd" d="M150.792 352.416c-9.584-4.255-50.508-24.26-57.788-58.447-6.291-29.538 17.761-69.357 29.812-86.95-.775 23.353 24.2 43.116 36.249 51.263 12.203 8.251 21.179 12.287 33.563 16.653l-41.836 77.481z" fill="#fff"/><path fill-rule="evenodd" clip-rule="evenodd" d="M127.399 196.704s-45.288 57.472-36.72 97.702c8.569 40.23 61.203 60.92 61.203 60.92l44.065-81.609c-13.771-4.743-22.717-8.602-35.497-17.241-21.302-14.403-42.231-36.783-33.051-59.772zm-6.415 17.261c2.612 15.521 15.227 31.61 36.695 46.124 11.592 7.837 20.308 11.932 31.642 16.047l-39.592 73.326c-12.062-5.637-47.756-24.732-54.4-55.93-5.524-25.933 13.203-60.332 25.655-79.567z" fill="#FAD8B0"/><path fill-rule="evenodd" clip-rule="evenodd" d="M114.703 230.181c.008.058.678 5.907 4.465 13.332 3.783 7.421 10.7 16.429 23.169 22.698.384.195.863.058 1.07-.303.205-.362.061-.812-.324-1.005-12.118-6.097-18.809-14.818-22.49-22.031a47.043 47.043 0 01-3.541-9.151 34.82 34.82 0 01-.623-2.728 19.012 19.012 0 01-.121-.731c-.024-.164-.032-.239-.033-.239-.046-.408-.435-.703-.87-.659-.435.043-.748.41-.702.817zm40.805 44.276l24.586 12.368c.384.194.863.058 1.07-.303.205-.362.06-.812-.324-1.005l-24.586-12.368c-.384-.194-.863-.058-1.07.303-.205.362-.06.812.324 1.005zm-37.227-11.068c.047.102 8.07 16.766 33.763 27.582.399.168.867 0 1.045-.374.179-.374 0-.814-.398-.98-12.622-5.314-20.869-12.047-25.964-17.44-2.547-2.697-4.305-5.061-5.422-6.743-.56-.84-.958-1.511-1.216-1.968-.128-.229-.221-.404-.283-.52l-.065-.129-.019-.038c-.178-.373-.646-.541-1.045-.371-.398.167-.575.607-.396.981zm-20.264 2.203c.004.042.225 4.424 2.015 9.575 1.789 5.141 5.158 11.112 11.592 14.143.39.183.865.034 1.061-.332.194-.367.036-.812-.354-.997-5.859-2.741-9.075-8.314-10.796-13.274a38.47 38.47 0 01-1.617-6.463 34.875 34.875 0 01-.263-2 34.546 34.546 0 01-.047-.542l-.011-.18c-.02-.409-.39-.726-.827-.706-.436.019-.773.368-.752.776zm28.1-60.298c-.001.024-.032.33-.032.898-.011 4.472 1.915 25.121 33.85 50.846a.825.825 0 001.114-.08.71.71 0 00-.085-1.047c-31.628-25.506-33.287-45.642-33.298-49.719 0-.259.007-.454.013-.58l.01-.14.003-.035c.041-.409-.277-.771-.712-.809-.434-.04-.82.258-.863.666zm14.019 4.935l.019-.002c.053-.001.201-.009.445-.009 2.268.003 12.642.582 27.105 10.586a.822.822 0 001.105-.157.714.714 0 00-.168-1.038c-14.73-10.195-25.483-10.878-28.042-10.875-.366 0-.565.013-.584.015-.436.031-.762.389-.729.797.035.408.415.714.851.683M85.607 280.44a49.28 49.28 0 00-.106 3.264c-.001 7.182 1.475 19.786 10.104 33.546 8.625 13.761 24.397 28.649 52.857 40.418.4.165.866-.004 1.042-.38.177-.375-.005-.813-.405-.978-28.209-11.671-43.68-26.337-52.132-39.813-8.45-13.478-9.885-25.798-9.885-32.793 0-1.229.045-2.293.103-3.171.027-.409-.303-.761-.74-.788-.434-.025-.81.287-.838.695z" fill="#2A1E17"/><path fill-rule="evenodd" clip-rule="evenodd" d="M480.077 258.248l-26.15 49.214s17.737 6.13 3.87 25.222c0 0 32.783 12.767 54.234-20.391 21.451-33.159-31.954-54.045-31.954-54.045z" fill="#91BA83"/><path fill-rule="evenodd" clip-rule="evenodd" d="M420.226 408.652c-13.233 0-27.199-5.074-41.538-15.089l48.921-76.098 29.095 17.204.185.072c.271.106 6.747 2.585 15.889 2.587h.002c7.351 0 16.626-1.613 25.662-7.616l-35.759 57.447c-.082.112-15.478 21.491-42.454 21.493h-.003z" fill="#fff"/><path fill-rule="evenodd" clip-rule="evenodd" d="M512.03 312.293c-12.12 18.733-27.854 22.806-39.252 22.806-8.776 0-14.982-2.415-14.982-2.415l-30.969-18.313-51.273 79.758c17.169 12.428 32.145 16.749 44.675 16.749 28.645 0 44.501-22.595 44.501-22.595l47.3-75.99zm-83.641 8.264l26.881 15.896.34.2.371.146c.289.111 7.188 2.754 16.797 2.754 5.609 0 12.278-.885 19.136-3.768l-31.201 50.126c-1.02 1.392-15.505 20.514-40.484 20.514-12.184 0-25.082-4.525-38.388-13.458l46.548-72.41z" fill="#96BD89"/><path fill-rule="evenodd" clip-rule="evenodd" d="M453.663 308.163l.092.031c.492.177 2.876 1.101 5.084 2.933 2.213 1.841 4.234 4.521 4.237 8.34.001 3.271-1.497 7.475-5.902 12.76a.714.714 0 00.135 1.042.827.827 0 001.11-.126c4.541-5.449 6.236-9.966 6.238-13.676.003-4.639-2.667-7.856-5.26-9.842-2.599-1.998-5.157-2.844-5.207-2.862-.413-.137-.863.065-1.009.453-.145.386.07.81.482.947z" fill="#2A1E17"/><path fill-rule="evenodd" clip-rule="evenodd" d="M425.686 313.209c.014.012 6.628 5.702 15.111 11.405 4.241 2.852 8.951 5.708 13.554 7.864 4.605 2.151 9.096 3.617 12.995 3.625l.156-.002c7.415-.078 15.502-.942 23.06-3.895 7.557-2.95 14.573-8.012 19.744-16.392.219-.355.09-.809-.287-1.014-.377-.206-.861-.086-1.081.269-5.003 8.095-11.697 12.914-18.984 15.767-7.285 2.849-15.172 3.705-22.467 3.781l-.141.001c-3.469.006-7.803-1.364-12.29-3.469-6.737-3.152-13.831-7.917-19.221-11.889a184.914 184.914 0 01-6.567-5.067 137.879 137.879 0 01-1.858-1.525c-.43-.359-.656-.553-.656-.555a.83.83 0 00-1.117.046.714.714 0 00.049 1.05zm3.268 29.57c.068.037 13.681 11.452 30.855 11.478 2.757 0 5.604-.299 8.494-.99.422-.101.678-.507.569-.903-.107-.398-.537-.637-.961-.536a34.719 34.719 0 01-8.102.944c-8.205.002-15.671-2.767-21.082-5.555a58.201 58.201 0 01-6.401-3.827 44.027 44.027 0 01-1.733-1.256 18.741 18.741 0 01-.444-.349l-.145-.117a.826.826 0 00-1.115.063.71.71 0 00.065 1.048zm19.205 22.763c.078.052 4.629 3.247 11.902 3.251 3.436 0 7.468-.722 11.869-2.818.391-.186.546-.632.348-.997-.197-.365-.673-.512-1.062-.327-4.186 1.992-7.955 2.657-11.155 2.658-3.384 0-6.137-.748-8.041-1.494a18.016 18.016 0 01-2.185-1.021 11.714 11.714 0 01-.558-.328l-.135-.088-.036-.024a.825.825 0 00-1.107.149.715.715 0 00.16 1.039zm-44.098 9.302c.073.062 12.713 11.866 34.012 11.874 7.019 0 14.966-1.288 23.676-4.698.404-.157.595-.591.427-.969-.169-.379-.631-.559-1.034-.401-8.527 3.337-16.257 4.582-23.069 4.584-10.328 0-18.559-2.87-24.216-5.741a47.659 47.659 0 01-6.475-3.94 31.736 31.736 0 01-1.661-1.29 17.502 17.502 0 01-.414-.354l-.132-.118a.826.826 0 00-1.117.003.711.711 0 00.003 1.05zm12.113-20.031c.008.006 2.269 1.525 5.245 3.288 2.983 1.767 6.659 3.777 9.593 4.783.409.141.863-.057 1.013-.442.149-.386-.061-.812-.472-.952-2.708-.924-6.357-2.903-9.289-4.643a125.694 125.694 0 01-3.69-2.276c-.927-.593-1.48-.965-1.481-.965a.822.822 0 00-1.102.173.71.71 0 00.183 1.034zm68.149-81.576l.042.015c.522.167 5.462 1.867 10.534 6.476 5.071 4.616 10.294 12.115 11.451 24.035.04.408.426.709.86.672.435-.037.754-.398.715-.806-1.219-12.67-6.978-20.657-12.438-25.424-5.462-4.772-10.603-6.356-10.674-6.379-.414-.127-.86.085-.996.475-.136.389.09.808.506.936z" fill="#2A1E17"/><path fill-rule="evenodd" clip-rule="evenodd" d="M494.034 303.797l.022.033c.258.387 2.582 4.095 2.577 9.3-.01 4.694-1.837 10.625-8.873 16.686a.71.71 0 00-.05 1.049.827.827 0 001.117.046c7.332-6.291 9.398-12.714 9.387-17.781-.005-5.999-2.809-10.069-2.852-10.138a.823.823 0 00-1.093-.221c-.366.223-.472.682-.235 1.026zm-117.127 94.659c.068.035 20.291 16.363 44.772 16.388 14.316.015 30.064-5.683 43.725-23.408a.712.712 0 00-.178-1.036.825.825 0 00-1.103.165c-13.445 17.395-28.577 22.78-42.444 22.794-11.86.003-22.814-3.997-30.794-8.016a89.115 89.115 0 01-9.477-5.522 67.754 67.754 0 01-2.583-1.814 50.192 50.192 0 01-.669-.505c-.148-.116-.22-.172-.22-.174a.826.826 0 00-1.114.082.71.71 0 00.087 1.046" fill="#2A1E17"/><path fill-rule="evenodd" clip-rule="evenodd" d="M12.11 243.627h11.799c.436 0 .79-.333.79-.742 0-.41-.354-.742-.79-.742h-11.8c-.436 0-.79.332-.79.742 0 .409.354.742.79.742zm657.242-133.258h11.8c.436 0 .79-.332.79-.742 0-.411-.354-.742-.79-.742h-11.8c-.436 0-.79.331-.79.742 0 .41.354.742.79.742z" fill="#FF6D66"/><path fill-rule="evenodd" clip-rule="evenodd" d="M352.952 34.351h11.798v-1.484h-11.798v1.484zm338.785 133.471l11.613 1.959.28-1.462-11.613-1.958" fill="#FAD8B0"/><path fill-rule="evenodd" clip-rule="evenodd" d="M228.414 444.285h11.798c.437 0 .791-.332.791-.742 0-.409-.354-.742-.791-.742h-11.798c-.436 0-.79.333-.79.742 0 .41.354.742.79.742z" fill="#A0C6F4"/><path fill-rule="evenodd" clip-rule="evenodd" d="M721.206 305.432c0 2.028-1.75 3.672-3.908 3.672-2.159 0-3.911-1.644-3.911-3.672 0-2.028 1.752-3.673 3.911-3.673 2.158 0 3.908 1.645 3.908 3.673z" fill="#91BA83"/><mask id="mask0" maskUnits="userSpaceOnUse" x="692" y="340" width="81" height="203"><path d="M692 340h80.179v202.92H692V340z" fill="#fff"/></mask><g mask="url(#mask0)" fill-rule="evenodd" clip-rule="evenodd" fill="#2A1E17"><path d="M759.694 531.579c-2.183-.647-3.394-2.836-2.702-4.887.69-2.048 3.02-3.184 5.203-2.537 2.182.651 3.392 2.839 2.702 4.887-.691 2.051-3.021 3.188-5.203 2.537z"/><path d="M998.842 395.253c.016-.043 3.148-8.794 3.158-19.361 0-7.909-1.77-16.881-8.043-23.912-6.276-7.035-17.026-11.989-34.621-11.98-17.31.003-41.299 4.755-74.505 17.005-64.823 23.918-113.001 59.054-144.986 92.182-15.994 16.564-27.939 32.626-35.897 46.548-7.953 13.93-11.939 25.691-11.948 33.805 0 2.748.46 5.092 1.431 6.965.964 1.872 2.477 3.266 4.459 4.001 4.612 1.719 9.609 2.414 14.688 2.414 11.458-.003 23.359-3.529 32.42-7.038 9.06-3.513 15.274-7.021 15.296-7.034a.717.717 0 00.271-1.018c-.225-.351-.71-.465-1.085-.254 0 0-.091.052-.275.153-1.375.754-7.812 4.19-16.52 7.43-8.705 3.242-19.689 6.279-30.107 6.276-4.926.002-9.722-.675-14.104-2.308-1.607-.604-2.789-1.676-3.622-3.272-.83-1.594-1.273-3.722-1.271-6.315-.01-7.671 3.871-19.314 11.761-33.103 23.659-41.407 83.202-102.316 180.066-138.05 33.093-12.213 56.918-16.905 73.928-16.902 17.295.008 27.476 4.817 33.42 11.449 5.928 6.638 7.664 15.242 7.664 22.958 0 5.147-.772 9.881-1.546 13.322a51.028 51.028 0 01-1.06 4.081c-.142.483-.253.857-.332 1.109a4.222 4.222 0 00-.126.377c-.142.389.079.809.49.94.411.13.869-.079.996-.468z"/></g></svg>