<svg width="68" height="67" xmlns="http://www.w3.org/2000/svg"><g id="Icon" fill="#000" stroke="none"><path d="M67.178 2.99a1.37 1.37 0 00-.41-.647c-.286-.583-.967-1.021-1.667-.9.028-.814-.673-1.637-1.667-1.402C53.218 2.447 42.73 4.929 32.718 8.099c-7.27 2.302-14.516 4.842-21.717 7.362-3.1 1.085-7.466 2.027-10.108 4.152-.531.427-.562 1.067-.33 1.616a.999.999 0 00-.312 1.559c3.366 4.087 8.357 11.728 14.289 12.867-.687 9.025-1.371 18.848 2.137 27.324.414.999 1.485 1.377 2.345.623.325-.286.613-.601.921-.9 2.358.216 5.224-2.02 7.051-3.166 2.547-1.6 4.99-3.369 7.39-5.182 1.088-.823 2.686-1.738 3.714-2.855 2.704 1.777 5.554 3.258 8.698 3.964 5.288 1.188 6.004-.843 8.262-5.243 4.1-7.99 6.808-17.016 9.675-25.524 2.312-6.863 4.507-14.527 2.445-21.705zM17.883 48.549c-.128 1.747-.488 4.181-.467 6.516-1.054-6.306-.673-12.891-.953-19.28.9-.042 1.796-.22 2.685-.49-.453 4.415-.938 8.83-1.265 13.254zM2.428 22.198c11.134-3.884 22.191-8.017 33.436-11.584 7.048-2.235 15.47-2.843 22.718-5.371-2.23 1.761-4.367 3.76-6.79 5.291-5.256 3.32-10.744 6.25-16.157 9.296-4.744 2.669-8.62 6.641-13.031 9.821-8.735 6.298-14.185-1.669-20.176-7.454zm48.305-4.787c-.044-.35-.087-.7-.109-1.053-.027-.448-.019-.902-.012-1.355 1.581-.869 3.139-1.755 4.616-2.706.24-.155.517-.326.808-.504a198.093 198.093 0 01-3.068 3.24c-.758.782-1.49 1.585-2.235 2.378zm-1.447 1.54c-.365.393-.741.778-1.104 1.174-.192-1.142-.486-2.277-.727-3.42.517-.272 1.02-.552 1.534-.826-.07 1.074-.004 2.145.297 3.071zm-6.2 6.862c-.62.71-1.26 1.404-1.873 2.12-.163-.331-.67-.468-.96-.19-.48-2.151-.84-4.298-1.016-6.538.753-.456 1.538-.88 2.312-1.314-.097 2.125-.018 5.784 1.537 5.922zm-.136-3.479c-.132-1.034-.145-2.077-.217-3.115 1.137-.62 2.286-1.227 3.434-1.832.039 1.434.262 2.892.791 4.1-.984 1.088-1.972 2.174-2.943 3.275a.53.53 0 00-.338-.154c-.495-.03-.684-1.934-.727-2.274zm-3.717 7.936a217 217 0 00-3.535 4.345c-.008 0-.015-.003-.023-.003-.074-.401-.17-.79-.222-1.197-.137-1.084-.17-2.182-.208-3.273-.063-1.835-.047-3.672-.11-5.507-.009-.253-.166-.378-.345-.438 1.059-.812 2.182-1.562 3.328-2.29a32.156 32.156 0 001.115 8.363zm-5.395 3.146c.02.59.325 1.866.82 2.533-.702.908-1.427 1.796-2.114 2.716.005-1.652-.256-3.367-.392-4.919-.193-2.191-.387-4.445-.915-6.6.944-.826 1.85-1.619 2.695-2.306.057-.047.12-.088.178-.135-.129 2.904-.373 5.802-.272 8.71zm-4.771 11.367c.12.089.241.185.362.275a10.28 10.28 0 00-1.033 1.119c-.715-5.175-.38-10.29-.813-15.467a.513.513 0 00-.15-.316 100.08 100.08 0 002.784-2.358c.342 2.145.438 4.344.486 6.497.046 2.072-.297 4.33.193 6.361-.448.621-.926 1.214-1.365 1.843-.02.028-.019.057-.035.084-.836.079-1.292 1.325-.43 1.962zm-8.758 13.32c-.123-7.783.744-15.652.445-23.403 1.996-.864 3.938-2.169 5.79-3.604l-.06.659c-.035.248-.052.26-.065.697-.41 4.679-.63 9.63.353 14.177.108.502.494.657.864.589-.716 1.052-1.35 2.177-2.024 3.267-.279.449-.577.884-.86 1.33.253-2.541-.076-5.358-.048-7.727.042-3.455-.37-6.953-.395-10.34-.002-.321-.472-.316-.49 0-.198 3.393-.786 6.877-.919 10.34-.119 3.104-.953 7.081-.062 10.11.037.123.118.192.19.273a50.285 50.285 0 01-2.72 3.631zm13.476-6.882a168.73 168.73 0 01-6.06 4.61 68.065 68.065 0 01-4.195 2.795 76.888 76.888 0 002.762-3.91c1.678-2.529 3.912-5.319 5.033-8.218 1.389 1.074 2.791 2.168 4.223 3.22-.615.493-1.195 1.05-1.763 1.503zM56.632 37.95c-2.348 6.092-3.03 15.89-10.831 14.19-4.997-1.087-9.697-5.228-14.095-8.166C42.393 30.886 54.119 18.747 64.844 5.778c1.613 10.478-4.605 22.81-8.212 32.171z" id="Shape"/><path d="M2.694 5.246A18.728 18.728 0 011.646.794C1.531-.245.078-.284.017.794c-.085 1.514.158 2.942.522 4.41.358 1.444.761 3.155 1.639 4.363.496.683 1.95.587 1.813-.496-.173-1.36-.822-2.543-1.297-3.825z" transform="translate(3 47)" id="Path"/><path d="M3.898 9.613c-.631-1.24-1.43-2.23-1.886-3.596C1.46 4.365 1.455 2.592 1.7.876 1.829-.014.754-.371.48.5-.54 3.768-.008 8.804 2.784 10.857c.704.518 1.504-.482 1.115-1.244z" transform="translate(0 46)" id="Path"/><path d="M7.939.578C7.771.074 7.043-.146 6.492.103c-.647.29-.785.704-1.12 1.208-.319.483-.74.902-1.205 1.297-1.025.871-2.372 1.44-3.7 1.952-.97.374-.281 1.685.731 1.4 1.576-.444 2.992-1.064 4.284-1.92C6.587 3.31 8.35 1.814 7.939.578z" transform="translate(28 59)" id="Path"/><path d="M6.038.348c-.935.89-1.701 2.074-2.624 3.012C2.397 4.395 1.196 5.29.25 6.397c-.69.809.173 1.973 1.068 1.489C2.622 7.179 3.814 5.995 4.938 5c.964-.852 2.363-1.905 2.924-3.136C8.447.579 7.045-.61 6.038.348z" transform="translate(33 59)" id="Path"/></g></svg>