<svg width="32" height="26" fill="none" xmlns="http://www.w3.org/2000/svg"><path d="M29.15 8.853h-1.467V3.881a3.363 3.363 0 00-3.36-3.36H3.36A3.363 3.363 0 000 3.881v13.573a3.363 3.363 0 003.36 3.361h9.302v2.306h-2.85c-.648 0-1.178.53-1.178 1.179 0 .648.53 1.179 1.179 1.179h8.064c.648 0 1.179-.53 1.179-1.18 0-.648-.53-1.178-1.18-1.178h-2.849v-2.306h2.634c.648 0 1.179-.53 1.179-1.18 0-.648-.53-1.178-1.18-1.178H3.36c-.55 0-1.002-.446-1.002-1.003V3.881c0-.55.446-1.002 1.002-1.002h20.963c.55 0 1.002.446 1.002 1.002v4.972h-1.467a2.852 2.852 0 00-2.85 2.85V22.63a2.852 2.852 0 002.85 2.849h5.299c.648 0 1.18-.53 1.18-1.18 0-.648-.532-1.178-1.18-1.178h-5.3a.49.49 0 01-.49-.491V11.703a.49.49 0 01.49-.491h5.3a.49.49 0 01.491.491v8.247c0 .649.53 1.18 1.18 1.18.648 0 1.172-.531 1.172-1.18v-8.247a2.852 2.852 0 00-2.85-2.85z" fill="#000"/></svg>