<svg width="61" height="76" xmlns="http://www.w3.org/2000/svg"><g id="Icon" fill="#000" stroke="none"><path d="M48.7 16.74c-.14-4.222-.218-9.927-.176-14.151a1.853 1.853 0 00-.071-.512c.083-.92-.463-1.892-1.654-1.86C31.773.606 16.751.022 1.725 0 .475-.002-.073 1.086.082 2.041c-.05.166-.084.344-.082.548.227 17.758.844 43.275.863 61.037 0 .4.114.722.296.979.11.752.657 1.418 1.645 1.394 6.495-.16 12.992-.263 19.482-.578 5.784-.28 12.992.095 18.52-1.775 1.958-.662 3.71-1.641 5.21-3.058 2.744-2.59 3.681-6.069 3.917-9.734.227-3.52-.191-7.212-.275-10.454-.215-8.379-.68-15.284-.958-23.66zm-9.507 31.676c-1.057.006-2.08.823-1.607 2.08.951 2.527 1.386 5.664-.076 8.081-1.768 2.922-4.92 2.844-7.919 3.218-1.833.229-3.783.107-5.63.158-1.44.04-19.654.48-19.654.55-.044-17.096-.614-41.949-.845-59.042 13.873.06 27.742.53 41.614.237-.052 14.036 1.205 34.326 1.279 45.419a18.155 18.155 0 00-6.673-.805c-.18.013-.34.052-.489.104zM40.548 60.1c1.394-2.352 1.741-5.236 1.016-8.364 1.679.065 3.332.385 4.9 1.043.006.019.01.04.017.06-.508 3.706-2.875 5.978-5.933 7.26z" transform="translate(11)" id="Shape"/><path d="M42.954 53.458c-1.114 0-2.045.949-2.045 2.088v1.478c-11.885 1.218-23.826.704-35.754.621-.295-17.824-.98-35.64-1.052-53.469H7.5c2.639 0 2.639-4.176 0-4.176H2.591c-.193 0-.368.029-.532.07C1.03.062-.001.733 0 2.087c.024 19.032.802 38.05 1.091 57.077.003.188.03.36.07.521-.014 1.054.644 2.12 1.976 2.123 13.283.032 26.588.753 39.818-.835.82-.098 1.381-.586 1.684-1.196.227-.336.361-.74.361-1.17v-3.063c0-1.138-.931-2.087-2.046-2.087z" transform="translate(0 14)" id="Path"/><path d="M27.955 4.74c2.714-.288 2.74-5.018 0-4.727-8.61.912-17.244 1.24-25.89 1.26-2.753.007-2.753 4.734 0 4.727 8.646-.02 17.28-.347 25.89-1.26z" transform="translate(20 18)" id="Path"/><path d="M24.026.017C16.698.971 9.363 1.276 1.996.998c-2.665-.1-2.657 4.804 0 4.904 7.366.277 14.702-.028 22.03-.981 2.618-.34 2.646-5.248 0-4.904z" transform="translate(22 27)" id="Path"/><path d="M27.324.034C18.955 1.484 10.522 2.09 2.057 2.403c-2.738.102-2.747 4.697 0 4.595 8.849-.329 17.651-1.019 26.4-2.533 2.705-.469 1.553-4.896-1.133-4.43z" transform="translate(21 34)" id="Path"/></g></svg>