<svg width="60" height="60" xmlns="http://www.w3.org/2000/svg"><g id="world-grid-hand-drawn-symbol"><path d="M43.724 4.275C37.746.97 30.736.391 24.038.012c-2.134-.12-4.68.699-6.715 1.313A21.595 21.595 0 0010.4 4.849C5.564 8.562 2.79 14.18 1.335 19.965c-1.257 5-1.707 10.629-1.001 16.04-.024.26 0 .522.1.77.842 5.546 2.936 10.816 6.698 14.878 12.074 13.04 36.477 9.856 47.359-3.01 6.862-8.112 6.744-18.896 2.764-28.29-2.806-6.623-7.132-12.54-13.531-16.078zM8.388 12.117c3.513-5.52 9.178-7.908 15.245-8.314-3.88 2.763-6.814 6.425-8.855 10.576a74.853 74.853 0 00-8.73 2.353 27.418 27.418 0 012.34-4.615zM3.853 34.533c-.417-4.515-.218-9.199.868-13.636a73.87 73.87 0 018.427-2.575c-2.14 6.333-2.447 13.425-1.034 20.09-2.859-.74-5.615-1.797-8.184-3.246-.024-.211-.057-.419-.077-.633zm16.528 20.836C11.914 53.18 6.77 47.22 4.73 39.494c2.678 1.224 5.497 2.098 8.388 2.703 1.609 5.018 4.24 9.642 7.854 13.313-.197-.047-.395-.09-.591-.14zM16.953 42.85c2.65.351 5.332.518 7.992.561.044 3.857.211 7.712.572 11.567-3.896-3.097-6.765-7.358-8.564-12.128zm7.984-2.885c-3.044-.031-6.117-.253-9.126-.761-1.819-7.178-1.392-15.077 1.426-21.744a70.42 70.42 0 018.592-1.023c-.361 7.845-.843 15.689-.892 23.528zm1.041-27.014a72.46 72.46 0 00-6.76.649c1.782-2.867 4.097-5.375 6.965-7.32a321.018 321.018 0 01-.204 6.67zm18.044-4.427c3.14 2.026 5.664 4.97 7.627 8.277a60.096 60.096 0 00-12.057-3.154c-1.964-3.37-4.374-6.495-7.027-9.268 4.031.682 7.93 1.87 11.457 4.145zm-14.336-2.09a46.367 46.367 0 015.426 6.677 67.717 67.717 0 00-5.624-.241c.085-2.146.155-4.29.198-6.435zm-.346 9.898a63.11 63.11 0 017.95.466c2.157 4.135 3.559 8.632 3.884 13.404a24.17 24.17 0 01-.957 8.61 101.31 101.31 0 01-10.315 1.05c-.485.025-.972.043-1.46.06.052-7.86.537-15.725.898-23.59zm-.368 38.086c-.326-3.673-.478-7.348-.52-11.024 3.427-.073 6.87-.34 10.295-.798-2.187 4.56-5.657 8.531-9.775 11.822zm17.553-3.326c-4.193 2.822-9.158 4.509-14.241 5.07 4.685-4.018 8.362-8.713 10.466-14.182a99.765 99.765 0 0012.983-3.221c-1.417 4.895-4.582 9.218-9.208 12.333zm9.934-16.204c-.06.013-.117.02-.179.04a95.062 95.062 0 01-12.363 3.238c.518-2.204.8-4.519.8-6.956-.001-4.767-1.184-9.4-3.143-13.725 4.006.798 7.92 2.02 11.657 3.718.241.109.479.16.707.17a42.583 42.583 0 011.817 5.314c.75 2.785.962 5.546.704 8.2z" id="Shape" fill="#000" stroke="none"/></g></svg>