<svg width="78" height="69" xmlns="http://www.w3.org/2000/svg"><g id="Icon" fill="#000" stroke="none"><path d="M50.423 8.64l-.017-.529c-.07-2.091-.309-3.981-1.674-5.655C47.48.92 45.367.42 43.511.246c-.109-.01-.213.003-.317.014-.059-.003-.11-.015-.171-.013-7.825.212-15.645.01-23.469-.227C19.488.015 19.43 0 19.36 0H9.113c-.04 0-.072.01-.111.011C8.956.01 8.916 0 8.869.001 4.933.063 1.607 2.225.896 6.316c-.034.2-.042.4-.036.595-.014.081-.035.156-.042.242a286.49 286.49 0 00-.75 15.571 280.124 280.124 0 00-.05 7.959c.022 2.753-.314 5.63 1.161 8.11 1.305 2.195 3.49 2.92 5.852 3.356.11.02.226.028.347.03.01 0 .017.002.05 0 .073 0 .141.01.22.002a178.718 178.718 0 0115.072-.729c.349.21.701.411 1.057.607.03.021.051.046.084.065 5.192 3.211 10.616 5.974 16.1 8.635 1.128.546 2.192.094 2.806-.685.442-.407.676-1.002.51-1.733a1.709 1.709 0 00-.172-.55l-2.508-6.597h1.936c.113 0 .213-.018.316-.032 1.79.203 3.635.107 5.149-1.017 2.94-2.18 2.907-6.33 2.973-9.622.096-4.708-.062-9.424-.249-14.127-.1-2.585-.21-5.17-.299-7.757zm-3.857 25.457c-.11.898-.383 1.738-1.008 2.383-1.14.836-2.953.308-4.253.277-1.12-.029-2.323 0-3.406 0a2.21 2.21 0 00-.793.146c-1.264.114-2.392 1.14-1.812 2.663l1.847 4.857c-3.452-1.752-6.858-3.591-10.176-5.6a1.82 1.82 0 00-.4-.284 25.73 25.73 0 01-1.464-.821c-.353-.426-.876-.719-1.595-.715a179.43 179.43 0 00-15.856.739c-.033.003-.06.014-.093.018-.052-.004-.097-.017-.151-.018-.703-.014-1.24-.14-1.778-.461-.404-.24-.785-.798-.984-1.362a2.74 2.74 0 00-.2-.434 2.47 2.47 0 00.034-.456c-.218-9.3.03-18.583.731-27.858.442-1.95 1.573-2.696 3.66-2.73.04 0 .074-.01.113-.012.045.002.085.012.131.012h9.758c4.661.006 9.304.392 13.96.426 2.366.017 4.718-.155 7.08-.249 1.557-.062 3.708-.305 5.07.664 1.613 1.15 1.224 3.727 1.28 5.457.084 2.609.172 5.218.242 7.827.07 2.61.118 5.22.118 7.83 0 1.33-.011 2.659-.039 3.987-.024 1.107.138 2.466-.016 3.714z" transform="translate(27)" id="Shape"/><path d="M45.836 27.358s0 5.218.003 5.242a2.877 2.877 0 00-.211.812c.04-.362-.086.32-.086.317a2.993 2.993 0 00-.038.163c-.015.029-.032.06-.058.113-.009.017-.176.27-.2.328-.08.091-.166.177-.254.258.02-.038-.299.201-.325.216l-.108.066a2.2 2.2 0 00-.17.052c-.523.176-.574.146-1.052.155-.068.002-.126.017-.19.024-.076-.008-.146-.024-.227-.024H27.722c-.673 0-1.176.263-1.512.656-.2.09-.397.205-.585.374a151.834 151.834 0 00-5.544 5.268c.257-1.142.496-2.29.696-3.446.6-3.455-3.7-2.53-5.572-2.48-2.116.054-5.074.816-7.114.28-.648-.17-2.197-1.024-2.237-1.831C5.42 25.245 4.828 16.6 4.404 7.943c0-.018-.006-.035-.007-.053a2.37 2.37 0 00-.067-.502c-.22-.892-.213-1.667.044-2.133 1.142-2.066 5.094-1.42 6.962-1.26 3.444.295 6.894.27 10.35.4 2.685.1 2.676-4.076-.003-4.176A327.45 327.45 0 0011.321.021C7.626 0 3.39-.36.899 2.96-.201 4.425-.127 6.51.255 8.222.68 16.83 1.267 25.43 1.697 34.036c.007.151.032.292.063.426-.013.333.045.684.221 1.045 2.593 5.32 9.324 4.275 14.24 4.085a73.303 73.303 0 01-2.374 8.501c-.276.8-.07 1.455.37 1.901.672 1.001 2.076 1.49 3.11.34A151.301 151.301 0 0128.36 39.255h14.56c.067 0 .123-.013.186-.018.077.006.149.02.231.018 1.714-.034 3.19-.543 4.517-1.63 1.225-1.001 1.73-2.575 1.92-4.086.14-.271.226-.588.226-.964v-5.218c0-2.69-4.164-2.69-4.164.001z" transform="translate(0 18)" id="Path"/></g></svg>