<svg width="72" height="50" xmlns="http://www.w3.org/2000/svg"><g id="money-stack-hand-drawn-outline" fill="#000" stroke="none"><path d="M69.389.083C49.116.393 22.532 1.13 2.265.461 1.435.434.96.95.82 1.564c-.018.052-.041.101-.052.157a10.992 10.992 0 00-.185 2.078C.06 11.172.173 25.49.001 32.875c-.006.27.049.5.144.696.165.6.633 1.139 1.408 1.23 20.656 2.428 47.635.61 68.309-.578.368-.022.668-.145.9-.33.688-.087 1.288-.572 1.235-1.467-.488-7.995-.517-22.931-.518-30.938 0-1.227-1.184-1.694-2.09-1.405zM3.124 31.885c.142-7.055.064-21.043.564-28.086 0-.074.003-.148.004-.222 19.46.58 45.222-.085 64.686-.396.007 7.034.067 20.997.455 28.021-19.811 1.158-45.914 2.807-65.709.683z" id="Shape"/><path d="M14.348 12.276c-1.538-1.28-3.439-1.847-5.379-2.26-.065-1.692-.13-3.383-.203-5.075.845.194 1.655.476 2.342.808 1.682.808 2.59-2.03.93-2.828a12.587 12.587 0 00-3.4-1.04 13.925 13.925 0 01-.015-.351c-.08-1.905-2.944-2.105-2.864-.18l.017.413c-1.838.154-3.573.792-4.76 2.148-2.188 2.498-.567 6.812 2.263 7.879.937.353 1.926.566 2.927.75.077 2.283.124 4.568.152 6.854-1.311-.643-2.505-1.592-3.247-2.434-1.251-1.42-3.4.558-2.148 1.98 1.255 1.425 3.27 2.846 5.418 3.61-.002.306.006.609.005.913-.01 1.92 2.853 2.11 2.864.18.001-.174-.005-.35-.003-.524 1.474.032 2.881-.384 4.019-1.479 2.43-2.336 4.161-6.8 1.082-9.364zM4.845 9.157c-1.824-.476-2.826-2.832-.794-3.895.563-.294 1.194-.456 1.851-.528.067 1.57.128 3.14.19 4.711-.423-.087-.84-.181-1.247-.288zm6.314 10.394c-.578.408-1.24.579-1.932.586a320.776 320.776 0 00-.146-7.042c1.199.287 2.356.695 3.392 1.432 1.728 1.228-.115 4.174-1.314 5.024z" transform="translate(28 6)" id="Shape"/><path d="M68.523.007C46.225 1.877 23.814 2.84 1.478 1.01c-1.979-.162-1.962 2.85 0 3.01 22.336 1.83 44.747.867 67.045-1.003 1.961-.164 1.977-3.177 0-3.01z" transform="translate(1 35)" id="Path"/><path d="M68.523.007C46.225 1.877 23.814 2.84 1.478 1.01c-1.979-.162-1.962 2.85 0 3.01 22.336 1.83 44.747.867 67.045-1.003 1.961-.164 1.977-3.177 0-3.01z" transform="translate(1 41)" id="Path"/><path d="M68.523.007C46.225 1.877 23.814 2.84 1.478 1.01c-1.979-.162-1.962 2.85 0 3.01 22.336 1.83 44.747.867 67.045-1.003 1.961-.164 1.977-3.177 0-3.01z" transform="translate(1 45)" id="Path"/><path d="M7.98 3.433c0-.025.007-.048.004-.072-.08-.965-.39-1.912-1.213-2.559-.86-.675-1.988-.876-3.088-.78a1.682 1.682 0 00-.255.044C2.416.164 1.49.516.735 1.184c-.103.09-.174.187-.232.285-.068.092-.13.19-.177.298a3.74 3.74 0 00-.235 2.347c-.02.22.027.444.156.643.505.786 1.22 1.375 2.03 1.883a.984.984 0 00.182.085c.09.049.19.09.306.12a5.108 5.108 0 003.725-.483c.13-.071.229-.156.313-.246l.03-.02c.809-.656 1.258-1.647 1.151-2.642 0-.008-.003-.014-.004-.021zm-2.456.659c-.002-.034-.14.216-.167.252.092-.125-.105.068-.186.144-.542.27-1.088.355-1.692.222a4.063 4.063 0 01-1.022-.896c-.005-.033-.007-.067-.016-.1-.098-.358-.058-.666.06-1.007.385-.313.844-.45 1.383-.459.067-.001.127-.012.188-.02.396-.007.757.04 1.032.184.132.07.207.164.291.29.103.157.169.412.189.659l.003.016c0 .026-.006.05-.003.076.015.135.016.267.01.402-.01-.02-.048.147-.07.237z" transform="translate(5 6)" id="Shape"/><path d="M7.98 3.433c0-.025.007-.048.004-.072-.08-.965-.39-1.912-1.213-2.559-.859-.675-1.987-.876-3.087-.78a1.704 1.704 0 00-.256.044C2.416.164 1.49.516.735 1.183a1.159 1.159 0 00-.233.286 1.54 1.54 0 00-.176.298A3.74 3.74 0 00.09 4.114c-.02.22.027.444.156.643.506.787 1.22 1.375 2.03 1.883a.964.964 0 00.182.085c.09.049.19.09.306.12a5.109 5.109 0 003.725-.483c.13-.071.229-.156.312-.246l.03-.02c.81-.655 1.26-1.647 1.152-2.642 0-.008-.003-.014-.003-.021zm-2.456.659c-.002-.034-.14.216-.167.252.093-.125-.104.068-.186.144-.542.27-1.087.355-1.691.222a4.058 4.058 0 01-1.023-.896c-.005-.034-.006-.067-.017-.1-.097-.358-.057-.666.061-1.007.385-.313.844-.45 1.383-.459.067-.001.127-.012.188-.02.396-.007.757.04 1.031.184.133.07.208.164.292.29.103.157.169.412.189.659l.003.016c0 .026-.006.05-.003.076.015.135.016.267.01.402-.01-.02-.048.147-.07.237z" transform="translate(59 5)" id="Shape"/></g></svg>