<svg width="247" height="232" xmlns:xlink="http://www.w3.org/1999/xlink" xmlns="http://www.w3.org/2000/svg"><defs><clipPath id="mask_1"><use xlink:href="#path_1"/></clipPath><clipPath id="mask_2"><use xlink:href="#path_2"/></clipPath><path d="M0 0h241.418v207.818H0V0z" transform="translate(0 .182)" id="path_1"/><path d="M0 0h134.725v128.207H0V0z" transform="translate(.699 .793)" id="path_2"/></defs><g id="Icon" transform="translate(2.5 2.5)"><g id="Group-5" transform="translate(0 19)"><path d="M0 0h241.418v207.818H0V0z" transform="translate(0 .182)" id="Clip-4" fill="none" fill-rule="evenodd" stroke="none"/><g clip-path="url(#mask_1)"><path d="M105.772 207.819c-87.526 0-101.77-64.042-105.595-120.5C-4.36 20.314 79.56-29.371 109.274 19.916c39.23 65.071 132.144 1.964 132.144 59.517" transform="translate(0 .182)" id="Fill-3" fill="#FFF" fill-rule="evenodd" stroke="none"/></g></g><g id="Group-8" transform="translate(106 98)"><path d="M0 0h134.725v128.207H0V0z" transform="translate(.699 .793)" id="Clip-7" fill="none" fill-rule="evenodd" stroke="none"/><g clip-path="url(#mask_2)"><path d="M134.725 0c0 57.475-77.578 128.209-134.725 128.209" transform="translate(.699 .793)" id="Fill-6" fill="#FFF" fill-rule="evenodd" stroke="none"/></g></g><path d="M132.731 20.886l-29.265 106.472c-1.167 4.246-5.793 7.182-10.325 6.558L6.368 121.935c-4.532-.626-7.264-4.58-6.1-8.823L29.536 6.64C30.702 2.395 35.33-.542 39.861.084l86.773 11.98c4.532.626 7.264 4.579 6.097 8.822" transform="translate(83 14)" id="Fill-9" fill="#FFF" fill-rule="evenodd" stroke="none"/><path d="M39.166 1.168c-3.848 0-7.524 2.595-8.514 6.2L1.427 113.708c-.507 1.839-.235 3.678.764 5.184 1.049 1.582 2.77 2.611 4.837 2.894l86.657 11.967c4.25.608 8.573-2.16 9.662-6.123l29.227-106.34c.505-1.84.235-3.68-.766-5.186-1.049-1.58-2.768-2.608-4.837-2.894L40.314 1.247a8.133 8.133 0 00-1.148-.079M94.82 135c-.433 0-.865-.03-1.297-.089L6.865 122.944c-2.408-.331-4.419-1.543-5.657-3.408-1.19-1.787-1.514-3.968-.917-6.136L29.517 7.06c1.238-4.506 6.15-7.63 10.96-6.972l86.656 11.964c2.41.334 4.418 1.547 5.656 3.412 1.19 1.787 1.515 3.966.922 6.134l-29.229 106.34c-1.126 4.103-5.299 7.062-9.662 7.062" transform="translate(82 13)" id="Fill-13" fill="#000" fill-rule="evenodd" stroke="none"/><g id="Manage-Ticket" transform="rotate(8 -480.084 767.143)"><path d="M21.168 13.594l-3.719-9.281h-1.937v11.375h1.5v-4.43L16.863 6.5l3.727 9.188h1.148l3.735-9.211-.141 4.78v4.43h1.5V4.313h-1.945l-3.719 9.28zm13.102 1.203q.078.64.203.89h1.515v-.124q-.297-.688-.297-1.852V9.82q-.03-1.282-.859-2.012-.828-.73-2.289-.73-.922 0-1.691.343-.77.344-1.22.933-.448.59-.448 1.223h1.453q0-.555.523-.945.524-.39 1.297-.39.883 0 1.336.448.453.45.453 1.207v.665H32.84q-1.82 0-2.824.73-1.004.73-1.004 2.05 0 1.087.8 1.794.801.707 2.051.707 1.399 0 2.407-1.047zm5.054-7.563l.047 1.063q.969-1.219 2.531-1.219 2.68 0 2.703 3.024v5.585H43.16v-5.593q-.008-.914-.418-1.352-.41-.437-1.277-.437-.703 0-1.235.375-.53.375-.828.984v6.024h-1.445V7.233h1.367zm12.477 7.563q.078.64.203.89h1.516v-.124q-.297-.688-.297-1.852V9.82q-.032-1.282-.86-2.012t-2.289-.73q-.922 0-1.691.343-.77.344-1.219.933-.45.59-.45 1.223h1.454q0-.555.523-.945.524-.39 1.297-.39.883 0 1.336.448.453.45.453 1.207v.665h-1.406q-1.82 0-2.824.73-1.004.73-1.004 2.05 0 1.087.8 1.794.801.707 2.051.707 1.399 0 2.407-1.047zm3.343-3.406q0-1.977.915-3.145.914-1.168 2.422-1.168 1.546 0 2.413 1.094l.07-.938h1.321v8.25q0 1.641-.972 2.586-.973.946-2.614.946-.914 0-1.789-.391-.875-.39-1.336-1.07l.75-.867q.93 1.148 2.274 1.148 1.054 0 1.644-.594.59-.594.59-1.672v-.726q-.867 1-2.367 1-1.485 0-2.403-1.196-.917-1.195-.917-3.257zm10.032 3.324q1.078 1.129 2.797 1.129 2.125 0 3.187-1.633l-.883-.688q-.398.516-.93.829-.53.312-1.296.312-1.078 0-1.778-.77-.699-.769-.73-2.019h5.726v-.602q0-2.023-.913-3.109-.915-1.086-2.563-1.086-1.008 0-1.871.559-.863.558-1.344 1.547-.48.988-.48 2.246v.265q0 1.89 1.078 3.02zm1.148-5.813q.594-.636 1.469-.636.906 0 1.438.605.53.606.593 1.707v.11H65.59q.14-1.149.734-1.786zm-9.726 2.653q0 1.43.586 2.246.586.816 1.64.816 1.367 0 2.008-1.242v-3.86q-.664-1.21-1.992-1.21-1.055 0-1.649.82-.593.82-.593 2.43zm-23.235 2.68q-.61.35-1.289.35-.71 0-1.164-.382-.453-.383-.453-1.062 0-1.555 2.656-1.555h1.133v1.734q-.273.563-.883.914zm17.532 0q-.61.35-1.29.35-.71 0-1.164-.382-.453-.383-.453-1.062 0-1.555 2.657-1.555h1.132v1.734q-.273.563-.883.914z" id="Manage-"/><path d="M47.543 32.719l.906-.946 2.946 3.915h1.695l-3.672-4.922 3.289-3.532h-1.758l-2.633 2.782-.773.93v-7.259h-1.445v12h1.445V32.72zm-13.488-8.32q-.215.242-.215.593 0 .352.215.586.215.235.636.235.422 0 .641-.235.219-.234.219-.586 0-.351-.219-.594-.219-.242-.64-.242-.422 0-.637.242zm-5.34 1.14h3.656v-1.227h-8.797v1.227h3.649v10.148h1.492V25.54zm35.922 1.695v-2.047H63.19v2.047h-1.539v1.118h1.54v5.242q0 1.078.492 1.664.492.586 1.46.586.54 0 1.11-.156v-1.165q-.438.094-.688.094-.507 0-.718-.254-.211-.254-.211-.763v-5.248h1.578v-1.118h-1.578zm-23.532 7.43q.774 0 1.352-.469.578-.468.64-1.172h1.368q-.04.727-.5 1.383-.461.657-1.23 1.047-.77.39-1.63.39-1.726 0-2.746-1.152t-1.02-3.152v-.242q0-1.235.454-2.195.453-.961 1.3-1.493.848-.53 2.005-.53 1.422 0 2.363.85.941.852 1.004 2.212h-1.367q-.063-.82-.621-1.348-.559-.527-1.38-.527-1.1 0-1.706.793-.606.793-.606 2.293v.273q0 1.46.602 2.25.601.79 1.718.79zm16.602 1.18q-1.719 0-2.797-1.13-1.078-1.128-1.078-3.019v-.265q0-1.258.48-2.246.481-.989 1.344-1.547.864-.559 1.871-.559 1.649 0 2.563 1.086.914 1.086.914 3.11v.601h-5.727q.032 1.25.73 2.02.7.77 1.778.77.766 0 1.297-.313.531-.313.93-.829l.883.688q-1.063 1.633-3.188 1.633zm-23.75-.157h1.445v-8.453h-1.445v8.453zm23.57-7.421q-.875 0-1.468.636-.594.637-.735 1.785h4.235v-.109q-.063-1.101-.594-1.707-.531-.605-1.438-.605z" id="Ticket"/></g><path d="M213.5 51c14.083 0 25.5-11.417 25.5-25.5S227.583 0 213.5 0 188 11.417 188 25.5 199.417 51 213.5 51z" id="Oval" fill="#E96363" fill-rule="evenodd" stroke="#FFF" stroke-width="5"/><path d="M4.072 4.89l4.649 11.602 4.648-11.601h2.432v14.218h-1.875v-5.537l.176-5.976-4.668 11.513H7.998L3.34 7.625l.185 5.947v5.537H1.65V4.891h2.422zm19.864 5.274q-.41-.068-.89-.068-1.776 0-2.411 1.513v7.5h-1.807V8.543h1.758l.03 1.22q.888-1.415 2.519-1.415.527 0 .8.136v1.68zm12.5-1.621L34.091 12.4l-2.315-3.857h-2.09l3.457 5.225-3.564 5.341h2.1l2.441-3.955 2.441 3.955h2.09l-3.564-5.341 3.457-5.225h-2.11z" transform="rotate(9 -100.343 919.61)" id="Mr-x"/><path d="M6.982 22.885c.917-2.064 1.832-4.128 3.428-8.314 1.593-4.185 3.865-10.489 5.802-13.14C16.904.482 17.553 0 18.111 0c1.004 0 1.714 1.55 1.86 4.725.224 4.942-.926 13.823-1.63 20.101-.698 6.278-.95 9.948-3.605 11.406-.966.531-2.25.768-3.634.768-2.428 0-5.17-.728-7.08-1.889C1.026 33.286.095 30.395.007 26.596c-.088-3.797.667-8.5 1.97-9.27a.79.79 0 01.42-.118c1.265 0 2.924 2.838 4.585 5.677" transform="translate(188 80)" id="Fill-31" fill="#FFF" fill-rule="evenodd" stroke="none"/><path d="M2.93 18.27a.286.286 0 00-.15.042c-.86.512-1.788 4.444-1.688 8.747.095 4.085 1.213 6.482 3.735 8.022 2.86 1.75 7.9 2.34 10.133 1.106 2.239-1.231 2.596-4.485 3.192-9.878l.434-3.853c.664-5.782 1.488-12.978 1.3-17.164-.131-2.884-.75-4.177-1.308-4.177-.177 0-.669.116-1.46 1.203-1.68 2.303-3.706 7.67-5.185 11.588l-.521 1.382c-1.6 4.203-2.529 6.293-3.425 8.314l-.425.965-.539-.921C5.697 21.376 3.88 18.27 2.93 18.27M11.597 38c-2.533 0-5.342-.75-7.326-1.962-2.845-1.734-4.16-4.496-4.265-8.952-.077-3.449.562-8.75 2.235-9.74.215-.125.447-.188.69-.188 1.415 0 2.86 2.243 4.497 5.02.77-1.753 1.634-3.778 2.975-7.297l.521-1.377c1.584-4.201 3.557-9.43 5.325-11.857C17.048.555 17.831 0 18.578 0c.98 0 2.196.91 2.394 5.242.192 4.277-.64 11.524-1.309 17.345l-.434 3.85c-.634 5.753-1.015 9.225-3.756 10.734-.988.543-2.329.829-3.876.829" transform="translate(187 80)" id="Fill-33" fill="#000" fill-rule="evenodd" stroke="none"/><path d="M38.777 161c-14.648 0-31.445-5.497-36.812-19.326-3.867-10.091-1.675-24.65 3.522-38.178 2.362-6.27 5.411-12.324 8.805-17.65.473-.816 1.032-1.632 1.546-2.362 8.463-20.056 17.484-39.552 32.904-53.164C65.667 15.418 90.324 7.73 114.98 0l3.908 11.68c-9.106 3.952-18.214 7.861-26.546 12.757-6.702 3.95-12.888 8.503-18.257 14.127-7.86 8.288-13.874 18.896-19.159 30.405 5.972 2.79 11.857 6.999 17.527 11.38 2.92 2.276 5.8 4.552 8.635 6.785 11.512 9.062 22.637 17.564 35.181 21.216 4.853 1.459 9.965 2.102 14.99 2.102 11.082 0 21.909-3.305 29.512-9.232 11.038-8.674 15.291-22.932 19.501-37.19.643-3.177 1.245-6.354 3.265-7.859 1.976-1.502 5.326-1.332 8.504-1.417h.861c2.834 0 5.239.816 3.521 13.142-1.974 13.399-8.849 40.624-23.626 58.188-8.848 10.652-20.576 17.823-32.689 21.343-5.926 1.761-11.898 2.623-17.697 2.623-2.02 0-3.953-.088-5.885-.303-19.115-2.061-34.75-14.13-50.43-26.282 1.718 13.487 3.352 26.968-8.247 33.455-.816.515-1.719.945-2.707 1.33" transform="translate(6 57)" id="Fill-35" fill="#F6C85F" fill-rule="evenodd" stroke="none"/><path d="M90 47.496c-5.977 1.764-11.997 2.624-17.842 2.624a53.52 53.52 0 01-5.935-.303C46.95 47.754 31.187 35.675 15.38 23.51 17.114 37.008 18.76 50.505 7.065 57 16.03 35.847-10.13 16.417 4.598 3.133c16.325-14.745 30.314 27.384 40.49 26.697 9.184-.603 34.518 2.534 44.912 17.666" transform="translate(56 156)" id="Fill-37" fill="#E1B34A" fill-rule="evenodd" stroke="none"/><path d="M36.966 57.734c2.942 2.279 5.842 4.557 8.698 6.792-10.689 6.619-29.684 2.32-35.74-.904-7.833-4.125-14.8-19.857-5.41-31.762 8.351-10.617 26.61-6.706 25.573-16.289C29.004 6.071 45.707-4.201 57 1.772c-6.751 3.954-12.982 8.511-18.389 14.142-7.92 8.295-13.977 18.912-19.3 30.43 6.015 2.794 11.943 7.006 17.655 11.39" transform="translate(41 79)" id="Fill-39" fill="#E1B34A" fill-rule="evenodd" stroke="none"/><path d="M.989 40L0 39.508c7.62-16.029 15.474-27.364 24.71-35.67A77.538 77.538 0 0129.337 0L30 .901a74.868 74.868 0 00-4.563 3.78C16.187 12.999 8.648 23.893.99 40" transform="translate(31 83)" id="Fill-41" fill="#000" fill-rule="evenodd" stroke="none"/><path d="M.713 19L0 18.166C9.963 10.047 22.026 4.532 32.553 0L33 .992C22.545 5.494 10.564 10.97.713 19" transform="translate(87 71)" id="Fill-43" fill="#000" fill-rule="evenodd" stroke="none"/><path d="M17.186 5.41c-1.335 2.545-2.669 5.086-4.657 7.085C11.155 13.878 9.465 15 7.57 15c-.842 0-1.728-.22-2.647-.742C1.945 12.568-1.37 7.74.588 4.47 2.27 1.66 7.838 0 13.634 0c.955 0 1.916.045 2.87.138 6.72.653 12.934 3.676 14.828 6.334 1.803 2.531-.31 4.733-3.173 4.733-.144 0-.288-.006-.436-.017-3.08-.238-6.807-3.008-10.537-5.779" transform="translate(119 54)" id="Fill-45" fill="#FFF" fill-rule="evenodd" stroke="none"/><path d="M14.14 1.076c-5.898 0-11.049 1.718-12.523 4.18-1.732 2.889 1.26 7.382 4.121 9.003 2.238 1.266 4.544.705 6.904-1.663 1.923-1.93 3.256-4.466 4.544-6.92l.302-.575.541.401c3.587 2.66 7.295 5.41 10.195 5.631 1.594.129 2.923-.473 3.447-1.446.385-.713.265-1.545-.348-2.404-1.725-2.416-7.713-5.426-14.379-6.074a29.095 29.095 0 00-2.803-.133M8.098 16c-.987 0-1.97-.274-2.919-.813C1.97 13.37-1.47 8.267.66 4.715 2.612 1.458 8.837 0 14.14 0c.986 0 1.967.046 2.917.14C24.128.826 30.33 4 32.232 6.67c.85 1.192 1 2.441.42 3.515-.74 1.368-2.51 2.197-4.52 2.018-3.073-.234-6.71-2.836-10.26-5.464-1.235 2.34-2.55 4.715-4.434 6.606C11.683 15.107 9.884 16 8.098 16" transform="translate(119 53)" id="Fill-47" fill="#000" fill-rule="evenodd" stroke="none"/><path d="M15.948 1.013L7.66 0C3.084 6.088-1.491 12.18.464 15.302 1.652 17.2 5.254 18 8.63 18c2.174 0 4.255-.331 5.532-.917 3.262-1.496 1.302-4.638.73-7.593-.575-2.952.24-5.715 1.055-8.477" transform="translate(44 110)" id="Fill-49" fill="#FFF" fill-rule="evenodd" stroke="none"/><path d="M8.354 1.171c-4.268 5.717-8.587 11.57-6.886 14.3.917 1.472 3.898 2.421 7.6 2.421 2.107 0 4.066-.32 5.234-.86 1.983-.914 1.66-2.397.922-4.937-.19-.649-.385-1.317-.514-1.988-.545-2.832.13-5.485.872-8.048l-7.228-.888zM9.067 19c-1.572 0-6.826-.211-8.523-2.934-2.13-3.42 2.363-9.44 7.123-15.81L7.856 0l.32.033L17 1.115l-.187.635c-.805 2.75-1.568 5.349-1.03 8.146.122.618.308 1.26.491 1.885.668 2.3 1.428 4.9-1.519 6.261-1.306.599-3.43.958-5.688.958z" transform="translate(44 110)" id="Fill-51" fill="#000" fill-rule="evenodd" stroke="none"/><path d="M0 16.542C4.04 19.27 8.08 22 11.292 22c1.207 0 2.298-.387 3.228-1.306 3.398-3.358 4.632-13.83 2.233-18.11C15.685.68 13.899 0 11.713 0c-2.73 0-6.085 1.062-9.438 2.125L0 16.542z" transform="translate(49 96)" id="Fill-53" fill="#FFF" fill-rule="evenodd" stroke="none"/><path d="M1.167 16.756c3.787 2.563 7.676 5.15 10.628 5.15 1.127 0 2.052-.374 2.83-1.146 3.203-3.176 4.433-13.239 2.126-17.37-.874-1.567-2.317-2.296-4.538-2.296-2.546 0-5.76.996-8.895 1.99l-2.15 13.672zM11.795 23c-3.35 0-7.497-2.808-11.507-5.528L0 17.278 2.364 2.24l.32-.1C5.994 1.085 9.418 0 12.213 0c2.607 0 4.396.929 5.467 2.847 2.538 4.539 1.222 15.2-2.311 18.702-.972.963-2.175 1.451-3.575 1.451z" transform="translate(49 95)" id="Fill-55" fill="#000" fill-rule="evenodd" stroke="none"/><path d="M38.158 13.611c2.061 1.925 4.122 3.848 6.21 3.848.894 0 1.79-.352 2.697-1.212 3.017-2.864 6.103-11.34 4.493-14.561C50.95.469 49.67 0 47.975 0c-2.794 0-6.717 1.267-10.637 2.531-1.374-.078-2.746-.154-4.078-.154-3.172 0-6.121.439-8.313 2.37-3.114 2.746-4.704 8.495-4.008 12.769.695 4.273 3.68 7.07-.182 10.42-3.861 3.35-14.566 7.256-18.76 16.72C-2.195 54.118.122 69.14 9.801 74.073 12.408 75.403 15.552 76 18.843 76c8.917 0 18.921-4.382 22.317-10.426 4.647-8.278-3.094-19.675-6.485-27.114-3.39-7.444-2.435-10.929-.837-13.423 1.596-2.494 3.832-4 4.66-5.738.826-1.74.242-3.713-.34-5.688" transform="translate(23 91)" id="Fill-57" fill="#121212" fill-rule="evenodd" stroke="none"/><path d="M63 36C37.137 36 8.963 14.3 0 .623L.939 0c10.107 15.422 44.95 41.219 72.763 33.462L74 34.553C70.426 35.548 66.737 36 63 36" transform="translate(68 172)" id="Fill-59" fill="#000" fill-rule="evenodd" stroke="none"/><path d="M.026 53L0 51.891C26.582 51.29 36.324 33.946 45.931 0L47 .303C38.668 29.747 29.917 52.327.026 53" transform="translate(143 115)" id="Fill-61" fill="#000" fill-rule="evenodd" stroke="none"/><path d="M38.302 56c-6.232 0-15.48-.99-22.488-5.99C1.445 39.758-5.376 27.815 5.003 0l1.055.39C-4.074 27.538 2.53 39.16 16.472 49.105 27.464 56.951 44.83 54.494 45 54.474" transform="translate(6 163)" id="Fill-63" fill="#000" fill-rule="evenodd" stroke="none"/><path d="M10.946 4.949H7.051V1.054C7.051.474 6.581 0 5.998 0c-.58 0-1.052.473-1.052 1.054v3.895H1.051a1.052 1.052 0 000 2.105h3.895v3.895a1.052 1.052 0 002.105 0V7.054h3.895a1.052 1.052 0 100-2.105" transform="translate(18 36)" id="Fill-65" fill="#000" fill-rule="evenodd" stroke="none"/><path d="M8.21 3.711H5.289V.79a.79.79 0 00-1.578 0v2.921H.79a.789.789 0 100 1.578h2.921V8.21a.79.79 0 101.578 0V5.289H8.21a.79.79 0 100-1.578" transform="translate(35 66)" id="Fill-67" fill="#000" fill-rule="evenodd" stroke="none"/><path d="M10.949 4.948H7.05V1.05a1.052 1.052 0 00-2.102 0v3.897H1.05a1.052 1.052 0 000 2.104h3.9v3.895a1.05 1.05 0 102.102 0V7.052h3.898a1.052 1.052 0 000-2.104" transform="translate(54 25)" id="Fill-69" fill="#000" fill-rule="evenodd" stroke="none"/><path d="M203 26.954l7.76 5.988 14.123-16.993" id="Path-4" fill="none" fill-rule="evenodd" stroke="#FFF" stroke-width="3" stroke-linecap="round"/></g></svg>