<svg width="242" height="216" xmlns:xlink="http://www.w3.org/1999/xlink" xmlns="http://www.w3.org/2000/svg"><defs><clipPath id="mask_1"><use xlink:href="#path_1"/></clipPath><path d="M0 0h241.284v203.546H0V0z" transform="translate(0 .495)" id="path_1"/></defs><g id="Icon"><g id="Group-3" transform="translate(0 11)"><path d="M0 0h241.284v203.546H0V0z" transform="translate(0 .495)" id="Clip-2" fill="none" fill-rule="evenodd" stroke="none"/><g clip-path="url(#mask_1)"><path d="M240.558 91.901c-7.715 58.369-54.048 131.563-118.921 106.633C67.431 177.704-11.087 144.907 1.306 90.472c13.047-57.317 68.074-6.12 113.553-70.127 33.924-47.746 136.002-6.407 125.699 71.556" transform="translate(0 .495)" id="Fill-1" fill="#FFF" fill-rule="evenodd" stroke="none"/></g></g><path d="M92.053 80.498c-2.575 14.201 3.612 23.06-4.402 26.873-2.448 1.189-6.145 1.867-10.795 2.248-3.237.256-6.934.381-10.96.381-9.218 0-20.057-.592-30.895-1.143l8.263-46.036c-.04-.72-.123-1.44-.165-2.119l-.04-.043c-9.013-8.097-17.65-16.022-24.374-23.228C10.547 28.697 5.272 21.069 0 13.396l.167-.17L15.903 0c6.725 6.655 12.704 14.412 20.802 18.016 6.725 3.01 14.366 3.942 22.173 4.534 2.49-.506 5.188-.762 8.056-.762 12.288 0 26.532 4.62 31.64 12.971.58.975 1.079 1.994 1.41 3.053 4.15 12.04-5.605 29.63-7.931 42.686" transform="translate(72 100)" id="Fill-4" fill="#456DA7" fill-rule="evenodd" stroke="none"/><path d="M28.422 43.99c-2.469 14.634 3.463 23.764-4.22 27.694-2.347 1.224-5.892 1.923-10.35 2.316C-9.078 45.168.916 24.594 12.061 38.18c11.702 14.241 10.629-7.03 3.78-20.14-5.15-9.862 4.279-4.925 10.393.934C31.271 23.8 32.444 4.673 36.026 0c3.979 12.407-5.374 30.536-7.604 43.99" transform="translate(135 138)" id="Fill-6" fill="#36619F" fill-rule="evenodd" stroke="none"/><path d="M42.82 48c-8.962-8.194-17.55-16.213-24.24-23.508C10.489 15.656 5.244 7.935 0 .172L.166 0c4.458.643 11.148 7.765 15.938 13.427 5.367 6.39.824 9.222 12.344 9.994C38.732 24.107 47.196 38.392 42.82 48" transform="translate(71 114)" id="Fill-8" fill="#36619F" fill-rule="evenodd" stroke="none"/><path d="M2.899 0C14.115 6.1 25.33 12.2 34.98 23.501c9.65 11.301 17.732 27.806 12.233 37.422C41.713 70.54 22.629 73.268 3.545 76L0 62.798c11.35-5.56 22.701-11.12 22.223-16.47-.479-5.35-12.789-10.488-17.98-18.174C-.946 20.468.974 10.233 2.9 0" transform="translate(153 125)" id="Fill-10" fill="#456DA7" fill-rule="evenodd" stroke="none"/><path d="M2.396 0C1.531 0 .81.375.39 1.044c-.421.667-.505 1.575-.233 2.518L15.1 55.436c.27.945.876 1.85 1.68 2.52.805.666 1.745 1.042 2.61 1.042L50.604 59c1.802-.002 2.806-1.596 2.238-3.564L37.901 3.562C37.333 1.594 35.412 0 33.608 0H2.396z" transform="translate(80 156)" id="Fill-12" fill="#F36C6C" fill-rule="evenodd" stroke="none"/><path d="M7.873 4.001C8.423 6.211 7.137 8 4.998 8 2.858 8 .678 6.21.127 4.001-.423 1.793.866 0 3.005 0 5.14 0 7.322 1.793 7.873 4.001" transform="translate(97 164)" id="Fill-14" fill="#FFF" fill-rule="evenodd" stroke="none"/><path d="M2.952 1.5C3.16 2.329 2.675 3 1.874 3 1.072 3 .254 2.329.048 1.5-.16.671.325 0 1.126 0c.8 0 1.618.671 1.826 1.5" transform="translate(102 174)" id="Fill-16" fill="#FFF" fill-rule="evenodd" stroke="none"/><path d="M52.025 60l-31.758-.002c-1.007 0-2.07-.41-2.99-1.16-.91-.74-1.58-1.73-1.892-2.785L.183 4.251C-.14 3.144-.032 2.093.486 1.288 1.008.47 1.916 0 2.974 0h31.76c2.09 0 4.23 1.73 4.877 3.943l4.756 16.19-1.029.312L38.583 4.25c-.5-1.717-2.262-3.166-3.849-3.166H2.974c-.698 0-1.264.282-1.592.794-.344.535-.407 1.268-.172 2.064l15.206 51.8c.242.833.803 1.653 1.529 2.248.724.585 1.57.922 2.322.922l31.758.002c.657 0 1.2-.251 1.536-.705.393-.538.476-1.321.23-2.157l1.026-.31c.344 1.166.198 2.299-.4 3.113-.539.736-1.387 1.142-2.392 1.144" transform="translate(76 153)" id="Fill-18" fill="#000" fill-rule="evenodd" stroke="none"/><path d="M38.449 1.587L16.926 8.634c-1.328-3.113-2.652-6.229-3.983-7.617C12.2.24 11.451 0 10.702 0c-.584 0-1.172.149-1.76.293l1.94 6.653C8.12 4.837 5.362 2.73 3.28 2.73c-.293 0-.569.04-.832.129-2.143.717-3.28 4.553-1.73 8.754 1.553 4.2 5.796 8.768 13.624 9.328.57.04 1.155.058 1.758.058 7.726 0 18.313-3.195 28.9-6.395L38.449 1.587z" transform="translate(114 184)" id="Fill-20" fill="#FFF" fill-rule="evenodd" stroke="none"/><path d="M50 32.854L22.566 0c-8.98.103-17.959.206-21.13 2.08-3.173 1.875-.542 5.517 2.63 7.213 2.025 1.082 4.271 1.37 6.596 1.37 1.317 0 2.656-.093 3.995-.185L34.678 45 50 32.854z" transform="translate(36 69)" id="Fill-22" fill="#FFF" fill-rule="evenodd" stroke="none"/><path d="M9.954.288c-.605.327-1.079.907-1.312 1.61L.162 27.31c-.49 1.462.165 3.05 1.46 3.548L38.129 44.85c1.295.498 2.741-.286 3.23-1.748l8.48-25.412c.489-1.464-.166-3.05-1.46-3.548L30.122 7.147l-18.251-7a2.287 2.287 0 00-1.917.14z" transform="translate(14 34)" id="Fill-24" fill="#EAC97D" fill-rule="evenodd" stroke="none"/><path d="M11.5 15.08c0-3.485-3.094-4.119-5.58-4.627-2.614-.536-4.216-.965-4.216-2.958 0-1.621 1.815-2.94 4.046-2.94 1.469 0 2.828.588 3.547 1.536a.852.852 0 101.357-1.03c-.9-1.186-2.377-1.96-4.052-2.158V.852a.852.852 0 00-1.704 0v2.05C2.13 3.236 0 5.168 0 7.495c0 3.484 3.094 4.118 5.58 4.627 2.614.535 4.216.964 4.216 2.957 0 1.621-1.815 2.94-4.046 2.94-1.469 0-2.828-.588-3.547-1.536a.852.852 0 00-1.357 1.03c.9 1.186 2.377 1.96 4.052 2.159v2.05a.852.852 0 101.704 0v-2.05c2.768-.334 4.898-2.266 4.898-4.593z" transform="rotate(22 -94.27 118.154)" id="Path" fill="#000" stroke="none"/><path d="M19.042 39L1.953 32.344C.408 31.74-.386 29.82.185 28.067l8.473-25.78c.273-.844.827-1.532 1.554-1.935a2.756 2.756 0 012.335-.168L49 14.378l-.362 1.01L12.185 1.192c-.488-.197-1.02-.149-1.498.114-.483.269-.873.754-1.062 1.331l-8.47 25.777c-.39 1.21.126 2.52 1.159 2.922l17.088 6.656-.36 1.008z" transform="translate(12 34)" id="Fill-28" fill="#000" fill-rule="evenodd" stroke="none"/><path d="M9 10.763c-.002-3.71-.005-7.419-1.842-9.27C6.127.453 4.516 0 3.094 0 1.984 0 .986.275.468.764-.717 1.878.58 4.098 1.782 6.64c1.198 2.545 2.297 5.412 3.486 6.151.227.143.46.209.694.209.981 0 2.01-1.12 3.038-2.237" transform="translate(55 60)" id="Fill-36" fill="#FFF" fill-rule="evenodd" stroke="none"/><path d="M7.248 14.684c.576-.73 1.157-1.46 1.437-3.907.277-2.446.258-6.612.237-10.777l11.02 4.617c-1.434 2.282-2.867 4.562-3.188 6.691-.32 2.127.47 4.105 1.26 6.081 1.638 4.57 3.278 9.14.454 13.494C16.116 34.517 10.658 38 6.551 38c-.817 0-1.582-.138-2.256-.44C.225 35.74-.63 27.96.396 23.157c1.03-4.807 3.94-6.64 6.852-8.473" transform="translate(137 108)" id="Fill-38" fill="#FFF" fill-rule="evenodd" stroke="none"/><path d="M2.814.707C.652 9.305-1.509 17.905 1.431 21.272 2.473 22.464 4.154 23 6.052 23c3.467 0 7.67-1.786 10.056-4.639C19.8 13.944 19.145 6.971 18.494 0L2.814.707z" transform="translate(143 97)" id="Fill-40" fill="#FFF" fill-rule="evenodd" stroke="none"/><path d="M16.378 22c-.602 0-1.194-.02-1.765-.062-9.86-.714-13.113-7.555-13.87-9.637C-.21 9.692-.249 6.965.646 5.007c.491-1.078 1.248-1.839 2.128-2.135 1.98-.65 4.68 1.03 7.523 3.188L8.672.442l.536-.137C9.774.164 10.419 0 11.064 0c.986 0 1.831.383 2.575 1.175 1.317 1.396 2.598 4.356 3.841 7.3l20.764-6.871.308 1.038-21.647 7.166-.185-.447c-1.262-2.996-2.567-6.1-3.816-7.42-.824-.88-1.804-.956-2.919-.709l2.204 7.633-1.256-.967c-2.94-2.267-6.04-4.58-7.845-3.989-.602.204-1.142.761-1.504 1.567-.776 1.694-.727 4.1.128 6.433.704 1.932 3.728 8.275 12.972 8.943 7.666.529 19.02-2.93 30.023-6.288L45 15.608C34.709 18.75 24.067 22 16.378 22" transform="translate(114 183)" id="Fill-42" fill="#000" fill-rule="evenodd" stroke="none"/><path d="M35.117 41L15.054 6.747c-4.916.439-8.04.131-10.658-1.272C2.27 4.355-.008 2.162 0 0l1.028.004c-.009 1.423 1.645 3.37 3.838 4.53 2.49 1.332 5.537 1.59 10.412 1.13l.321-.032.17.286L36 40.454l-.883.546z" transform="translate(36 73)" id="Fill-44" fill="#000" fill-rule="evenodd" stroke="none"/><path d="M35.179 41L8.577 11.637v-.195c0-3.593 0-7.306-1.647-9.075-.894-.976-2.37-1.325-3.456-1.325-.939 0-1.738.222-2.082.58-.755.783.018 2.533.912 4.564l.408.929c.152.29.298.633.45 1.08l-1.035.321a7.27 7.27 0 00-.397-.97l-.422-.954C.264 4.23-.637 2.191.595.914 1.151.334 2.205 0 3.474 0c1.713 0 3.31.627 4.271 1.677 1.887 2.028 1.918 5.844 1.918 9.57L36 40.317l-.821.683z" transform="translate(54 60)" id="Fill-46" fill="#000" fill-rule="evenodd" stroke="none"/><path d="M16.132 14.85c-1.905 1.694-3.811 3.39-6.604 3.39a7.83 7.83 0 01-.547-.021c-3.097-.237-7.26-2.517-8.534-6.397C-.826 7.94.794 2.46 3.097.693A3.278 3.278 0 015.15 0c1.905 0 4.064 1.407 6.228 2.813 1.94-.753 3.881-1.506 5.577-1.506.623 0 1.212.102 1.756.343 2.028.895 3.428 3.717 4.83 6.539 1.574.554 3.147 1.11 3.906 2.381.759 1.274.703 3.265.046 4.563-.66 1.3-1.923 1.91-3.181 2.519 1.322 1.262 2.646 2.527 2.272 4.432C26.25 23.785 24.56 26 22.687 26c-.224 0-.447-.031-.672-.098-2.128-.63-4.313-4.44-5.303-6.813-.989-2.372-.784-3.305-.58-4.24" transform="translate(137 89)" id="Fill-48" fill="#000" fill-rule="evenodd" stroke="none"/><path d="M18.558 28.632c1.614 4.411 3.314 8.998.552 13.236-2.463 3.763-7.983 7.049-11.849 7.049-.85 0-1.486-.171-2.125-.43-3.82-1.688-4.713-9.302-3.695-14.016 1.02-4.758 3.993-6.572 6.797-8.303l.17-.13c.469-.562.935-1.21 1.23-2.423.3.044.553.044.852.044 2.505 0 3.78-.692 3.864-.736l-.511-.951s-1.485.777-4.46.562c-.89-.259-1.57-.648-2.079-1.21-2.72-3.115-.68-11.419 1.402-19.551l14.78-.648c.638 6.53 1.19 13.147-2.337 17.301-.848 1.081-2.082 1.988-3.525 2.724l-.211.13-.17.907c-.341 2.293.509 4.37 1.315 6.445zm-.211-6.66c1.486-.778 2.677-1.729 3.609-2.856 3.909-4.582 3.186-11.72 2.507-18.598L24.422 0 7.856.736l-.086.389C5.604 9.644 3.354 18.47 6.54 22.015c.51.649 1.187 1.081 2.082 1.385-.3.995-.682 1.47-.98 1.858-2.886 1.773-6.115 3.807-7.22 8.954-1.104 5.017-.168 13.277 4.291 15.226.72.389 1.573.562 2.548.562 4.247 0 10.068-3.462 12.7-7.526 3.102-4.714 1.231-9.732-.425-14.274-.807-1.99-1.53-3.85-1.275-5.84l.086-.388z" transform="translate(137 97)" id="Fill-50" fill="#000" fill-rule="evenodd" stroke="none"/><path d="M.6 3L0 2.396C.82 1.598 1.61.798 2.386 0L3 .584C2.223 1.388 1.426 2.195.6 3" transform="translate(199 158)" id="Fill-52" fill="#F750A2" fill-rule="evenodd" stroke="none"/><path d="M70.065 1.382a91.892 91.892 0 00-7.56-.306l-.751.002-.009-1.076.76-.002c2.591 0 5.164.105 7.643.31l-.083 1.072zm-24.88 1.213l-.17-1.06c2.757-.483 5.564-.857 8.334-1.11l.091 1.07c-2.742.252-5.52.624-8.255 1.1zm41.18 1.93a63.957 63.957 0 00-8.062-2.041l.188-1.059A65.314 65.314 0 0186.68 3.5l-.315 1.026zM29.074 6.833l-.34-1.016A96.45 96.45 0 0136.79 3.33l.252 1.04a96.474 96.474 0 00-7.97 2.462zm71.723 5.704c-1.872-1.768-4.151-3.378-6.78-4.786l.48-.953c2.71 1.448 5.067 3.111 7 4.944l-.7.795zM13.953 13.95l-.52-.932a80.803 80.803 0 017.479-3.985l.429.98a81.6 81.6 0 00-7.388 3.937zM.723 24.25L0 23.48a65.588 65.588 0 016.406-5.66l.625.864A64.03 64.03 0 00.723 24.25zm100.814 4.506l-.178-1.06a60.685 60.685 0 016.222-.79c-.219-2.448-.828-4.912-1.819-7.334a6.663 6.663 0 00-.126-.302l.925-.48c.063.12.11.242.16.366 1.036 2.53 1.674 5.114 1.896 7.683.376-.024.75-.041 1.126-.059l.042 1.076a60.885 60.885 0 00-8.248.9zm24.801.25a76.815 76.815 0 00-8.254-1.03l.072-1.073c2.795.194 5.607.544 8.362 1.042l-.18 1.06zm15.859 4.936c-2.379-1.13-4.993-2.133-7.767-2.988l.294-1.03c2.82.866 5.483 1.889 7.904 3.039l-.431.98zm-55.673 1.255l-.691-.806c1.907-1.74 4.386-3.225 7.358-4.412l.376 1.005c-2.86 1.142-5.229 2.556-7.043 4.213zm17.219 8.7l-.837-.639c1.673-2.335 2.934-4.86 3.744-7.5l.993.327c-.845 2.753-2.157 5.383-3.9 7.812zm51.401.251c-1.471-2.125-3.425-4.121-5.808-5.931l.617-.866c2.472 1.876 4.504 3.953 6.036 6.17l-.845.627zm-73.089 6.64c-.695-1.264-1.048-2.873-1.048-4.78 0-1.224.146-2.588.433-4.05l1.017.214c-.273 1.392-.41 2.684-.41 3.837 0 1.718.302 3.148.91 4.248l-.902.53zm7.887 2.962l-.194-1.058c2.345-.455 4.882-1.664 7.341-3.491l.609.874c-2.584 1.918-5.265 3.19-7.756 3.675zm42.631 2.445l-.26-1.043c2.571-.682 5.177-.975 7.748-1.013.226 0 .454.005.682.011l-.032 1.076c-.262-.006-.528-.013-.785-.01-2.436 0-4.913.33-7.353.979zm26.219 4.228l-1.007-.28a21.29 21.29 0 00.731-5.424c0-.988-.079-1.966-.233-2.908l1.025-.181c.165 1.003.247 2.042.247 3.089 0 1.845-.256 3.767-.763 5.704zm-2.702.066c-2.311-1.63-4.777-2.904-7.325-3.783l.326-1.023c2.645.912 5.195 2.23 7.584 3.92l-.585.886zm-37.434 3.902l-.878-.573c1.24-2.048 3.471-3.926 6.619-5.58l.469.959c-2.981 1.565-5.069 3.312-6.21 5.194zm48.338 8.69a40.174 40.174 0 00-4.758-6.954l.78-.715a41.4 41.4 0 014.889 7.145l-.911.525zm-17.335 1.883l-.617-.861c2.144-1.65 3.991-3.737 5.485-6.198l.877.57c-1.562 2.576-3.495 4.76-5.745 6.49zm-24.407 2.657c-3.042-1.303-5.446-3.081-6.955-5.145l.831-.647c1.377 1.882 3.693 3.586 6.524 4.795l-.4.997zm10.125 2.028a27.194 27.194 0 01-1.849-.065l.072-1.074c2.725.182 5.542-.068 8.121-.778l.269 1.036a24.76 24.76 0 01-6.613.881zm36.914 9.559a53.24 53.24 0 00-1.959-8.31l.985-.346a53.644 53.644 0 011.996 8.488l-1.022.168zm1.189 17.232l-1.031-.133c.336-2.715.507-5.442.512-8.1v-.466H174v.466a67.752 67.752 0 01-.52 8.233zm-4.109 16.868l-.976-.378a81.582 81.582 0 002.499-8.195l1.006.269a83.904 83.904 0 01-2.529 8.304zm-7.416 15.606l-.885-.56a99.44 99.44 0 004.01-7.538l.934.474a99.4 99.4 0 01-4.059 7.624zM152.129 153l-.795-.693a119.716 119.716 0 005.126-6.789l.845.632a120.636 120.636 0 01-5.176 6.85z" transform="translate(56)" id="Fill-54" fill="#F750A2" fill-rule="evenodd" stroke="none"/><path d="M.815 6L0 5.162A95.828 95.828 0 012.232 0L3 .936A101.14 101.14 0 00.815 6" transform="translate(47 30)" id="Fill-56" fill="#F750A2" fill-rule="evenodd" stroke="none"/></g></svg>