<svg width="225" height="201" xmlns="http://www.w3.org/2000/svg"><g id="Icon"><g id="Share_Comment"><path d="M225 100.139c0 55.327-45.007 107.65-99.37 100.139-70.864-9.701-57.097-64.944-99.37-100.139C-54.17 33.213 70.747 0 125.63 0 180.51 0 225 44.834 225 100.139z" id="Path" fill="#FFF" stroke="none"/><path d="M47.297 64.056l22.312 11.78a1.306 1.306 0 001.594-.256 1.357 1.357 0 00.16-1.63l-6.191-10.69a1.353 1.353 0 01.454-1.824c7.104-3.824 12.871-9.783 16.512-17.062 5.305-10.27 9.722-27.04-6.316-36.514C67.566 2.955 53.675 0 40.217 0 27.832 0 15.592 2.536 8.492 8.384-6.288 20.541.689 47.036 10.782 58.69c4.608 5.514 11.463 8.561 18.578 8.258a79.372 79.372 0 0017.937-2.892z" transform="translate(93 51)" id="Path" fill="#F4CC6E" stroke="none"/><path d="M.486 7a.508.508 0 01-.408-.199c-.145-.2-.082-.466.143-.597C6.94 2.19 17.585 0 30.19 0c6.87.001 13.719.663 20.428 1.972.265.055.43.29.368.524-.062.235-.327.38-.593.326A104.374 104.374 0 0030.108.85C17.708.85 7.248 3.02.67 6.928A.72.72 0 01.486 7z" transform="translate(101 52)" id="Path" fill="#000" stroke="none"/><path d="M12.312 50a1.83 1.83 0 01-.864-.208L.267 44.052a.517.517 0 01-.21-.687.551.551 0 01.673-.208l11.182 5.74a.85.85 0 001.006-.162.824.824 0 00.11-1.002L6.71 37.126a1.838 1.838 0 01.652-2.496C20.07 27.72 28.25 14.807 28.99.5c0-.277.226-.5.506-.5.279 0 .505.223.505.5-.774 14.612-9.114 27.8-22.068 34.9a.847.847 0 00-.295 1.143l6.317 10.608c.422.711.31 1.614-.274 2.204a1.82 1.82 0 01-1.368.645z" transform="translate(150 77)" id="Path" fill="#000" stroke="none"/><path d="M53.866.002a2.41 2.41 0 00-2.182 1.276 2.45 2.45 0 00.137 2.54l3.027 4.496c-2.373-.145-4.562-.227-6.525-.227a49.91 49.91 0 00-6.853.412 36.053 36.053 0 00-12.968 4.125 43.582 43.582 0 00-7.466 5.218 49.795 49.795 0 00-7.977 8.683C9.13 31.53 4.829 40.322.152 52.903a2.462 2.462 0 001.247 3.073l24.73 11.776c.325.162.682.247 1.043.248.337-.009.67-.079.982-.206a2.468 2.468 0 001.33-1.506c5.523-17.874 10.848-29.114 15.975-33.72l.205-.186a40.207 40.207 0 0112.273-8.105l-1.146 3.877c-.31.992.044 2.072.88 2.681a2.44 2.44 0 001.431.475c.48-.004.95-.147 1.35-.413l26.49-17.963a2.463 2.463 0 00-.737-4.393L54.541.085a2.03 2.03 0 00-.675-.083z" transform="translate(83 70)" id="Path" fill="#FFF" stroke="none"/><path d="M27.988 70a2.855 2.855 0 01-1.243-.293L1.687 57.763a3.045 3.045 0 01-1.512-3.745c4.722-12.76 9.112-21.838 13.047-26.984a51.572 51.572 0 018.16-8.848 44.884 44.884 0 017.766-5.355 37.217 37.217 0 0113.295-4.184 66.387 66.387 0 0112.654-.25l-2.506-3.745a3.016 3.016 0 010-3.41A3.008 3.008 0 0155.76.092l32.038 8.597a2.959 2.959 0 012.16 2.37 2.983 2.983 0 01-1.25 2.964L61.974 32.305a2.978 2.978 0 01-3.397 0 3.008 3.008 0 01-1.097-3.326l.87-2.865a38.105 38.105 0 00-11.225 7.593l-.249.25c-5.094 4.54-10.479 15.961-16.03 33.95a3.023 3.023 0 01-1.614 1.842c-.393.17-.816.256-1.243.25zM49.443 9.212a50.016 50.016 0 00-6.875.397 36.77 36.77 0 00-12.965 4.184 44.446 44.446 0 00-7.497 5.167 51.209 51.209 0 00-8.118 8.66c-3.893 5.083-8.284 14.077-12.923 26.754a1.974 1.974 0 00.994 2.468l25.06 11.965a2.052 2.052 0 001.635 0 2.08 2.08 0 001.077-1.213c5.592-18.178 11.08-29.745 16.299-34.41l.165-.167a41.196 41.196 0 0112.633-8.368.555.555 0 01.539 0 .526.526 0 01.145.523l-1.201 3.975a2.103 2.103 0 00.704 2.091c.686.451 1.57.451 2.257 0l26.798-18.01c.612-.453.93-1.207.829-1.966a1.938 1.938 0 00-1.43-1.569l-32.058-8.64a2.06 2.06 0 00-2.07.775 2.11 2.11 0 000 2.259l3.085 4.56a.527.527 0 010 .523.475.475 0 01-.476.251 109.08 109.08 0 00-6.607-.21z" transform="translate(80 63)" id="Shape" fill="#000" stroke="none"/><path d="M18.792 0S-4.903 11.993.922 18.174a6.563 6.563 0 004.947 1.814 88.25 88.25 0 0010.439-1.772c5.448-.68 12.13-.103 15.95-3.977C36.83 9.582 18.791 0 18.791 0z" transform="translate(186 33)" id="Path" fill="#EAC97D" stroke="none"/><path d="M15.1 2.748A42.497 42.497 0 003.551 0C1.616 0 .186.515.032 1.997-.584 8.009 7.752 13.699 13.934 14c3.827.021 1.165-11.252 1.165-11.252z" transform="translate(186 70)" id="Path" fill="#EAC97D" stroke="none"/><path d="M4.594.466S-3.753 16.865 2.055 18h.711c3.127 0 5.524-4.054 7.94-6.264C13.468 9.143 17.45 6.75 17.976 3c.366-2.432-3.614-3-7.33-3a49.987 49.987 0 00-6.052.466z" transform="translate(166 20)" id="Path" fill="#EAC97D" stroke="none"/><path d="M3.417 19.976a3.73 3.73 0 01-.85 0A2.774 2.774 0 01.44 18.333C-1.684 13.733 4.543.81 4.82.284a.493.493 0 01.295-.261.476.476 0 01.386.042c.251.128.356.44.233.701C3.948 4.358-.28 14.434 1.355 17.873c.243.576.758.982 1.36 1.073 2.402.526 4.527-1.927 6.525-4.38.723-.833 1.382-1.621 2.126-2.19.743-.57 1.381-1.271 2.125-1.885l1.658-1.467a.482.482 0 01.701 0 .534.534 0 010 .744c-.531.504-1.105.986-1.658 1.468-.552.482-1.424 1.249-2.125 1.862-.701.613-1.318 1.402-2.02 2.19-1.955 2.3-4.016 4.688-6.63 4.688z" transform="translate(165 17)" id="Path" fill="#000" stroke="none"/><path d="M6.535 21.99a7.063 7.063 0 01-5.454-2.148 3.813 3.813 0 01-1.005-3.415C1.273 9.575 18.79.488 19.538.102a.512.512 0 01.818.462.515.515 0 01-.347.44c-.171 0-17.816 9.258-18.928 15.595a2.822 2.822 0 00.748 2.534 5.995 5.995 0 004.706 1.74 30.95 30.95 0 006.416-1.01c1.476-.343 2.866-.665 4.278-.837 1.411-.172 2.609-.236 3.914-.344 1.304-.107 2.908-.193 4.277-.386a.49.49 0 01.578.43.537.537 0 01-.45.579c-1.454.193-2.951.3-4.405.408-1.455.108-2.61.194-3.85.344-1.24.15-2.652.472-4.107.795a30.763 30.763 0 01-6.651 1.138z" transform="translate(186 28)" id="Path" fill="#000" stroke="none"/><path d="M9.505 12.95a.353.353 0 01-.195 0C4.498 11.1-.466 6.917.035 2.292.165 1.247.949 0 4.041 0c3.99.34 7.907 1.214 11.626 2.594.262.102.395.374.305.623a.524.524 0 01-.566.342A44.203 44.203 0 004.15 1.026c-2.809 0-2.918 1.085-2.961 1.427-.436 4.022 4.006 7.883 8.708 9.673a.482.482 0 01.275.26.43.43 0 01-.013.363.469.469 0 01-.28.228.515.515 0 01-.373-.027z" transform="translate(186 67)" id="Path" fill="#000" stroke="none"/><path d="M128 19.069l-4.576 7.03c-9.13 13.812-18.24 26.243-27.515 29.438-1.691.58-3.468.872-5.255.866-9.11 0-18.385-7.463-27.619-14.884-6.554 17.523-13.108 35.045-27.618 36.447-.686.045-1.375.045-2.06 0-7.627 0-16.901-3.917-23.724-10.04C3.45 62.485-.672 55.29.091 47.642 1.74 30.696 27.544 11.483 42.198 3.937A28.85 28.85 0 0154.565 0c5.173 0 7.77 3.463 11.047 8.41 5.173 7.855 11.995 19.338 18.55 24.265a13.375 13.375 0 008.243 3.092 19.476 19.476 0 0010.306-3.793c6.183-4.123 12.119-10.473 18.117-16.863L128 19.069z" transform="translate(7 106)" id="Path" fill="#63B8C4" stroke="none"/><g id="Group" transform="translate(17 131)"><path d="M113.655 0c-9.12 13.99-18.219 26.582-27.483 29.82a15.848 15.848 0 01-5.249.876c-9.099 0-18.363-7.559-27.585-15.076-6.546 17.75-13.093 35.499-27.585 36.919-.686.045-1.373.045-2.059 0-7.616 0-16.88-3.968-23.694-10.17 2.717-5.513 12.928 0 14.101-2.526 1.174-2.527-.947-6.474 9.593-12.258 10.54-5.784 23.695 2.944 23.448-14.617-.247-17.562 10.293-15.683 15.254-3.404 1.771 5.128 5.708 9.185 10.734 11.064a17.727 17.727 0 0015.245-1.354c9.12-4.761 13.731-15.37 25.28-19.274z" transform="translate(.037 .146)" id="Path" fill="#3EABBA" stroke="none"/></g><path d="M.833 9.922a14.663 14.663 0 011.343-5.348A9.91 9.91 0 016.308.451 5.219 5.219 0 018.375 0C9.2 0 9.78.3 9.8.88c0 1.01-1.653 2.878-3.326 4.725l6.426-.88a8.538 8.538 0 01-.662 4.832 17.481 17.481 0 01-4.132 4.295C7.672 14.948 7.218 16 6.04 16h-.517a12.09 12.09 0 01-5.062-3.63c-.93-1.245-.269-1.846.372-2.448z" transform="translate(127 111)" id="Path" fill="#FFF" stroke="none"/><path d="M27.021 67.567c-2.906-10.97-5.792-21.942-2.634-31.83 3.623-9.57 10.79-17.323 19.97-21.603a19.62 19.62 0 017.926-1.698c3.982.202 7.9 1.092 11.586 2.632L71 6.134C61.673 3.078 52.346 0 43.333 0a33.46 33.46 0 00-9.787 1.38C21.606 5.05 10.543 16.552 5.022 29.794-.5 43.036-.144 58.018.128 73l26.893-5.433z" transform="translate(40 42)" id="Path" fill="#63B8C4" stroke="none"/><path d="M5.977 8.432c.49 2.646.96 5.292 0 5.568-.982 0-3.031-1.975-4.27-3.08A10.05 10.05 0 010 8.945L5.23 0c2.896.209 5.76.712 8.537 1.5A23.955 23.955 0 0120 4.918c-3.287.553-6.574 1.106-8.9 1.698a26.039 26.039 0 00-5.123 1.817z" transform="translate(103 47)" id="Path" fill="#FFF" stroke="none"/><path d="M12.447 0L20 8.917a12.971 12.971 0 00-5.383 4.877c-1.398 2.47-2.086 6.279-4.34 7.598a4.163 4.163 0 01-2.273.607 8.186 8.186 0 01-5.508-2.386c-2.087-2.22-3.13-5.59-2.087-7.452 1.043-1.863 3.943-2.093 6.26-3.914A24.845 24.845 0 0012.446 0z" transform="translate(64 99)" id="Path" fill="#FFF" stroke="none"/><path d="M0 15.862C5.896 21.421 11.792 27 16.067 27a4.019 4.019 0 001.853-.416c4.212-2.082 6.128-12.823 4.507-18.735C20.805 1.936 15.73.999 10.655 0L0 15.862z" transform="translate(68 84)" id="Path" fill="#FFF" stroke="none"/><path d="M6.613 17h-.645A12.941 12.941 0 01.6 13.18a1.987 1.987 0 01-.592-1.604c.053-.6.37-1.14.862-1.466a14.341 14.341 0 011.394-5.323A10.326 10.326 0 016.758.494 5.536 5.536 0 018.84 0c1.394 0 1.915.73 1.935 1.395.021.666-.936 2.147-2.559 4.014l5.119-.665a.405.405 0 01.374 0 .564.564 0 01.187.365 9.03 9.03 0 01-.665 5.022 18.38 18.38 0 01-4.287 4.53C8.693 15.711 8.05 17 6.613 17zM8.943.902a4.764 4.764 0 00-1.79.407 9.238 9.238 0 00-4.015 3.907 13.798 13.798 0 00-1.29 5.151.477.477 0 01-.166.322c-.666.601-.958.88-.292 1.782a11.948 11.948 0 004.807 3.456c1.02.257 1.435-.473 2.08-1.803a.323.323 0 01.125-.193 17.64 17.64 0 004.162-4.293 7.068 7.068 0 00.478-3.993l-5.93.794a.515.515 0 01-.52-.257.573.573 0 01.02-.537C8.05 4.078 9.839 2.104 9.839 1.352c.042-.365-.52-.45-.874-.45h-.02z" transform="translate(126 111)" id="Shape" fill="#000" stroke="none"/><path d="M6.174 16c-.55 0-1.59-.359-4.382-3.46A9.676 9.676 0 01.06 10.302a.522.522 0 010-.486L5.053.28a.466.466 0 01.49-.274 38.54 38.54 0 018.151 1.625 23.678 23.678 0 016.115 3.735c.146.13.216.33.183.527a.518.518 0 01-.387.38c-3.078.57-6.257 1.182-8.458 1.794-1.524.418-3 1.005-4.402 1.751.59 3.65.835 5.74-.306 6.12a.813.813 0 01-.265.063zm-5.095-5.95a13.99 13.99 0 001.427 1.814c2.69 2.975 3.525 3.123 3.668 3.123.428-.38 0-3.503-.387-5.38a.534.534 0 01.244-.55 23.957 23.957 0 014.912-1.962c2.038-.57 4.688-1.097 7.44-1.604A19.343 19.343 0 0013.45 2.58a35.573 35.573 0 00-7.643-1.52L1.08 10.05z" transform="translate(102 47)" id="Shape" fill="#000" stroke="none"/><path d="M8.364 36.999a8.416 8.416 0 01-5.741-2.618C.314 32.054-.647 28.459.457 26.403A6.705 6.705 0 013.87 23.93a13.317 13.317 0 002.901-1.6 13.248 13.248 0 001.941-1.932l-2.492-2.39-1.43-1.391a.505.505 0 010-.644L15.126.223a.426.426 0 01.49-.207c5.005.997 10.215 2.078 11.809 8.186 1.532 5.735 0 16.85-4.638 19.198-1.716.873-3.514.602-6.13-.748a9.708 9.708 0 00-1.409 1.932c-.458.86-.86 1.748-1.205 2.66a10.41 10.41 0 01-3.188 5.07 4.5 4.5 0 01-2.492.685zM5.708 16.18l1.144 1.102c.94.914 1.88 1.828 2.82 2.7a.527.527 0 010 .686 11.747 11.747 0 01-5.476 4.156A6.129 6.129 0 001.233 26.9c-.878 1.642 0 4.82 2.044 6.794a7.464 7.464 0 005.046 2.327c.717.04 1.43-.14 2.043-.52a10.081 10.081 0 002.82-4.612c.358-.946.774-1.87 1.246-2.763a9.89 9.89 0 011.86-2.43.444.444 0 01.571 0c2.35 1.308 3.964 1.661 5.435.893 3.8-1.912 5.68-12.238 4.086-18.035-1.45-5.443-5.945-6.461-10.726-7.417L5.708 16.18z" transform="translate(63 84)" id="Shape" fill="#000" stroke="none"/><path d="M16.553 15.509c1.49 1.723 3 3.446 5.16 3.446a4.682 4.682 0 001.532-.27c3.929-1.6 6.814-5.006 7.72-9.114.42-3.965-3-7.765-6.147-9.052A7.113 7.113 0 0022.112 0c-2.137.16-4.217.76-6.104 1.765a36.028 36.028 0 00-4.846-.436 8.565 8.565 0 00-4.91 1.245 13.345 13.345 0 00-4.384 8.471 9.565 9.565 0 00.881 5.834C1.197 18.042-.335 19.183.064 21.758a10.83 10.83 0 005.958 7.827 6.819 6.819 0 002.35.415 8.775 8.775 0 007.027-3.633c1.93-2.803 1.531-6.83 1.154-10.858z" transform="translate(66 80)" id="Path" fill="#000" stroke="none"/><path d="M.502 37a.488.488 0 01-.354-.13.461.461 0 01-.148-.338.48.48 0 01.132-.35.507.507 0 01.349-.158C15.1 35.556 22.555 22.02 30.01.332a.512.512 0 01.647-.304c.266.09.406.372.314.63C23.349 22.73 15.622 36.512.522 37h-.02z" transform="translate(40 147)" id="Path" fill="#000" stroke="none"/><path d="M.847 70a.508.508 0 01-.51-.485C-.43 55.017-2.492 16.474 29.185.1a.514.514 0 01.554-.035.505.505 0 01-.087.92C-1.449 17.064.592 55.143 1.357 69.473a.503.503 0 01-.134.364.512.512 0 01-.355.163H.847z" transform="translate(40 45)" id="Path" fill="#000" stroke="none"/></g></g></svg>